<?xml version="1.0" encoding="utf-8"?>
<!-- Generator: Adobe Illustrator 18.1.0, SVG Export Plug-In . SVG Version: 6.00 Build 0)  -->
<!DOCTYPE svg PUBLIC "-//W3C//DTD SVG 1.1//EN" "http://www.w3.org/Graphics/SVG/1.1/DTD/svg11.dtd">
<svg version="1.1" id="Layer_1" xmlns:sketch="http://www.bohemiancoding.com/sketch/ns"
	 xmlns="http://www.w3.org/2000/svg" xmlns:xlink="http://www.w3.org/1999/xlink" x="0px" y="0px" viewBox="-290 376 29.8 41.9"
	 enable-background="new -290 376 29.8 41.9" xml:space="preserve">
<title>Imported Layers</title>
<desc>Created with Sketch.</desc>
<g id="Page-1" sketch:type="MSPage">
	<g id="Imported-Layers" sketch:type="MSLayerGroup">
		<path id="Fill-1" sketch:type="MSShapeGroup" fill="#FFFFFF" d="M-275.1,417.9c-0.6,0-1.1-0.4-1.2-1c-0.2-0.7,0.2-1.4,0.9-1.6
			l13.6-3.7c0.7-0.2,1.4,0.2,1.6,0.9c0.2,0.7-0.2,1.4-0.9,1.6l-13.6,3.7C-274.9,417.9-275,417.9-275.1,417.9"/>
		<path id="Fill-2" sketch:type="MSShapeGroup" fill="#FFFFFF" d="M-276.4,409.9h2.6v6.8h-2.6V409.9z"/>
		<path id="Fill-3" sketch:type="MSShapeGroup" fill="#FFFFFF" d="M-276.4,396.4h2.6v7.6h-2.6V396.4z"/>
		<path id="Fill-4" sketch:type="MSShapeGroup" fill="#FFFFFF" d="M-261.5,414.2c-0.7,0-1.3-0.6-1.3-1.3v-3.4c0-0.7,0.6-1.3,1.3-1.3
			c0.7,0,1.3,0.6,1.3,1.3v3.4C-260.2,413.7-260.8,414.2-261.5,414.2"/>
		<path id="Fill-5" sketch:type="MSShapeGroup" fill="#FFFFFF" d="M-275.1,417.9c-0.1,0-0.2,0-0.3,0l-13.6-3.7
			c-0.7-0.2-1.1-0.9-0.9-1.6s0.9-1.1,1.6-0.9l13.6,3.7c0.7,0.2,1.1,0.9,0.9,1.6C-274,417.5-274.6,417.9-275.1,417.9"/>
		<path id="Fill-6" sketch:type="MSShapeGroup" fill="#FFFFFF" d="M-288.7,414.2c-0.7,0-1.3-0.6-1.3-1.3v-3.4c0-0.7,0.6-1.3,1.3-1.3
			c0.7,0,1.3,0.6,1.3,1.3v3.4C-287.5,413.7-288,414.2-288.7,414.2"/>
		<path id="Fill-7" sketch:type="MSShapeGroup" fill="#FFFFFF" d="M-267,388.7h-16.2c-0.7,0-1.3-0.6-1.3-1.3c0-0.7,0.6-1.3,1.3-1.3
			h16.2c0.7,0,1.3,0.6,1.3,1.3C-265.7,388.1-266.3,388.7-267,388.7"/>
		<path id="Fill-8" sketch:type="MSShapeGroup" fill="#FFFFFF" d="M-276.4,382.5h2.6v8.1h-2.6V382.5z"/>
		<path id="Fill-9" sketch:type="MSShapeGroup" fill="#FFFFFF" d="M-275.1,383.8c-2.1,0-3.9-1.7-3.9-3.9c0-2.1,1.7-3.9,3.9-3.9
			c2.1,0,3.9,1.7,3.9,3.9C-271.3,382.1-273,383.8-275.1,383.8L-275.1,383.8z M-275.1,378.6c-0.7,0-1.3,0.6-1.3,1.3
			c0,0.7,0.6,1.3,1.3,1.3c0.7,0,1.3-0.6,1.3-1.3C-273.8,379.2-274.4,378.6-275.1,378.6L-275.1,378.6z"/>
		<path id="Fill-10" sketch:type="MSShapeGroup" fill="#FFFFFF" d="M-270.4,408.2h-12.9c-0.7,0-1.3-0.6-1.3-1.3s0.6-1.3,1.3-1.3
			h12.9c0.7,0,1.3,0.6,1.3,1.3S-269.7,408.2-270.4,408.2"/>
		<path id="Fill-11" sketch:type="MSShapeGroup" fill="#FFFFFF" d="M-270.3,401.5h-9.6c-0.7,0-1.3-0.6-1.3-1.3
			c0-0.7,0.6-1.3,1.3-1.3h9.6c0.7,0,1.3,0.6,1.3,1.3C-269,400.9-269.6,401.5-270.3,401.5"/>
		<path id="Fill-12" sketch:type="MSShapeGroup" fill="#FFFFFF" d="M-267,394.8h-12.9c-0.7,0-1.3-0.6-1.3-1.3c0-0.7,0.6-1.3,1.3-1.3
			h12.9c0.7,0,1.3,0.6,1.3,1.3C-265.7,394.2-266.3,394.8-267,394.8"/>
		<path id="Fill-13" sketch:type="MSShapeGroup" fill="#FFFFFF" d="M-267,396.4c-0.7,0-1.3-0.6-1.3-1.3v-1.7c0-0.7,0.6-1.3,1.3-1.3
			c0.7,0,1.3,0.6,1.3,1.3v1.7C-265.7,395.9-266.3,396.4-267,396.4"/>
		<path id="Fill-14" sketch:type="MSShapeGroup" fill="#FFFFFF" d="M-283.2,408.2c-0.7,0-1.3-0.6-1.3-1.3v-1.7
			c0-0.7,0.6-1.3,1.3-1.3c0.7,0,1.3,0.6,1.3,1.3v1.7C-282,407.6-282.5,408.2-283.2,408.2"/>
		<path id="Fill-15" sketch:type="MSShapeGroup" fill="#FFFFFF" d="M-279.9,401.5c-2.6,0-4.6-2.1-4.6-4.7c0-2.6,2.1-4.7,4.6-4.7
			c0.7,0,1.3,0.6,1.3,1.3c0,0.7-0.6,1.3-1.3,1.3c-1.1,0-2.1,0.9-2.1,2.1s0.9,2.1,2.1,2.1c0.7,0,1.3,0.6,1.3,1.3
			C-278.6,400.9-279.2,401.5-279.9,401.5"/>
		<path id="Fill-16" sketch:type="MSShapeGroup" fill="#FFFFFF" d="M-270.4,408.2c-0.7,0-1.3-0.6-1.3-1.3s0.6-1.3,1.3-1.3
			c1.1,0,2.1-0.9,2.1-2.1c0-1.1-0.9-2.1-2.1-2.1c-0.7,0-1.3-0.6-1.3-1.3c0-0.7,0.6-1.3,1.3-1.3c2.6,0,4.6,2.1,4.6,4.7
			C-265.7,406.1-267.8,408.2-270.4,408.2"/>
	</g>
</g>
</svg>
