<?xml version="1.0" encoding="utf-8"?>
<!-- Generator: Adobe Illustrator 18.1.0, SVG Export Plug-In . SVG Version: 6.00 Build 0)  -->
<!DOCTYPE svg PUBLIC "-//W3C//DTD SVG 1.1//EN" "http://www.w3.org/Graphics/SVG/1.1/DTD/svg11.dtd">
<svg version="1.1" id="Layer_1" xmlns:sketch="http://www.bohemiancoding.com/sketch/ns"
	 xmlns="http://www.w3.org/2000/svg" xmlns:xlink="http://www.w3.org/1999/xlink" x="0px" y="0px" viewBox="-240 331.2 130.9 130.5"
	 enable-background="new -240 331.2 130.9 130.5" xml:space="preserve">
<title>Logo</title>
<desc>Created with Sketch.</desc>
<g id="Page-1" sketch:type="MSPage">
	<g id="Logo" sketch:type="MSLayerGroup">
		<path id="Fill-1" sketch:type="MSShapeGroup" fill="#FFFFFF" d="M-174.5,461.7c-36.1,0-65.5-29.3-65.5-65.3s29.4-65.3,65.5-65.3
			s65.5,29.3,65.5,65.3S-138.4,461.7-174.5,461.7L-174.5,461.7z M-174.5,333.3c-35,0-63.4,28.3-63.4,63.2s28.4,63.2,63.4,63.2
			s63.4-28.3,63.4-63.2S-139.5,333.3-174.5,333.3L-174.5,333.3z"/>
		<path id="Fill-2" sketch:type="MSShapeGroup" fill="#FFFFFF" d="M-214.9,431.8c-7.4-8.4-11.9-18.7-13-29.8l2.1-0.2
			c1.1,10.7,5.4,20.6,12.5,28.6L-214.9,431.8"/>
		<path id="Fill-3" sketch:type="MSShapeGroup" fill="#FFFFFF" d="M-134.1,431.8l-1.6-1.4c7.1-8.1,11.4-18,12.5-28.6l2.1,0.2
			C-122.2,413.1-126.7,423.4-134.1,431.8"/>
		<path id="Fill-4" sketch:type="MSShapeGroup" fill="#FFFFFF" d="M-174.5,438.6c-23.3,0-42.2-18.9-42.2-42.1s19-42.1,42.2-42.1
			s42.2,18.9,42.2,42.1S-151.2,438.6-174.5,438.6L-174.5,438.6z M-174.5,356.4c-22.1,0-40.2,18-40.2,40s18,40,40.2,40
			s40.2-18,40.2-40S-152.3,356.4-174.5,356.4L-174.5,356.4z"/>
		<path id="Fill-5" sketch:type="MSShapeGroup" fill="#FFFFFF" d="M-174.5,432.6c-20,0-36.2-16.2-36.2-36.1
			c0-19.9,16.2-36.1,36.2-36.1c20,0,36.2,16.2,36.2,36.1C-138.2,416.4-154.5,432.6-174.5,432.6L-174.5,432.6z M-174.5,362.4
			c-18.9,0-34.2,15.3-34.2,34.1c0,18.8,15.3,34.1,34.2,34.1c18.9,0,34.2-15.3,34.2-34.1C-140.3,377.7-155.6,362.4-174.5,362.4
			L-174.5,362.4z"/>
		<path id="Fill-6" sketch:type="MSShapeGroup" fill="#FFFFFF" d="M-225.6,386.7c0.1,0,0.2,0,0.3,0l0.4,0l1,0.1l0.7,0.1
			c0.1,0,0.2,0,0.2,0.1c0.1,0,0.2,0.1,0.2,0.1l1.1,1.4c0,0.1,0,0.2,0.1,0.3c0,0.1,0,0.2,0,0.3l-0.6,5.3c0,0.2-0.1,0.3-0.3,0.2
			l-1.7-0.2c-0.1,0-0.1,0-0.2-0.1c0-0.1-0.1-0.1-0.1-0.2l0.3-2.2l0.3-2.5c0-0.1,0-0.1,0-0.2c0-0.1-0.1-0.1-0.2-0.1l-1.2-0.1
			c-0.1,0-0.1,0-0.2,0.1c-0.1,0-0.1,0.1-0.1,0.2l-0.4,3.1c0,0.1,0,0.2-0.1,0.2c0,0.1-0.1,0.2-0.1,0.2l-1.4,1.1c-0.1,0-0.2,0-0.3,0.1
			c-0.1,0-0.2,0-0.3,0l-0.3,0l-1.6-0.2l-0.3,0c-0.1,0-0.2,0-0.2-0.1c-0.1,0-0.2-0.1-0.2-0.1l-1.1-1.4c0-0.1,0-0.2,0-0.2
			c0-0.1,0-0.2,0-0.3l0-0.3l0.6-4.7c0-0.1,0-0.1,0.1-0.2c0.1,0,0.1-0.1,0.2-0.1l1.7,0.2c0.1,0,0.1,0,0.2,0.1c0,0.1,0.1,0.1,0.1,0.2
			l-0.5,4.4c0,0.1,0,0.1,0,0.2c0,0.1,0.1,0.1,0.2,0.1l1.1,0.1c0.1,0,0.1,0,0.2-0.1c0.1,0,0.1-0.1,0.1-0.2l0.4-3.1
			c0-0.1,0-0.2,0.1-0.3c0-0.1,0.1-0.2,0.1-0.2l1.4-1.1C-225.8,386.8-225.7,386.8-225.6,386.7"/>
		<path id="Fill-7" sketch:type="MSShapeGroup" fill="#FFFFFF" d="M-227.8,374.8c0.1,0,0.1,0,0.2,0l1,0.3l6.3,2.1l0,0l0,0
			c0.1,0,0.1,0.1,0.2,0.1c0.1,0,0.1,0.1,0.2,0.1l0.8,1.6c0,0.1,0,0.2,0,0.3c0,0.1,0,0.2-0.1,0.3l-1.3,3.9l-0.1,0.4
			c0,0.1-0.1,0.1-0.1,0.2s-0.1,0.2-0.2,0.2l-1.6,0.8c-0.1,0-0.2,0-0.3,0c-0.1,0-0.2,0-0.2-0.1l-0.5-0.1l-6-2l-0.8-0.3
			c-0.1,0-0.1-0.1-0.2-0.1c0-0.1,0-0.1,0-0.2l0.6-1.8c0-0.1,0.1-0.1,0.1-0.2c0.1,0,0.1,0,0.2,0l5.8,1.9l0.8,0.3c0.1,0,0.1,0,0.2,0
			c0.1,0,0.1-0.1,0.1-0.2l0.9-2.6c0-0.1,0-0.1,0-0.2c0-0.1-0.1-0.1-0.2-0.1l-6-1.9l-0.6-0.2c-0.1,0-0.1-0.1-0.2-0.1
			c0-0.1,0-0.1,0-0.2l0.6-1.9C-227.9,374.9-227.8,374.8-227.8,374.8"/>
		<path id="Fill-8" sketch:type="MSShapeGroup" fill="#FFFFFF" d="M-220.9,364.9c0.1,0,0.2,0,0.3,0.1c0.1,0,0.2,0.1,0.2,0.1l0.3,0.2
			l0.1,0.1l1,0.6c0.1,0,0.1,0.1,0.2,0.2c0.1,0.1,0.1,0.1,0.1,0.2l0.4,0.9c0,0.1,0.1,0.1,0.2,0.2c0.1,0,0.1,0,0.2,0l0.9-0.1
			c0.1,0,0.2,0,0.3,0c0.1,0,0.2,0,0.2,0.1l1,0.6l0.3,0.2l0.2,0.1c0.1,0,0.1,0.1,0.2,0.2c0.1,0.1,0.1,0.1,0.2,0.2l0.5,1.8
			c0,0.1,0,0.2-0.1,0.3c0,0.1-0.1,0.2-0.1,0.2l-0.2,0.3l-2.9,5c-0.1,0.2-0.2,0.2-0.4,0.1l-8.1-4.7c-0.1,0-0.1-0.1-0.1-0.2
			c0-0.1,0-0.1,0-0.2l3.1-5.2l0,0c0-0.1,0.1-0.1,0.2-0.2c0.1-0.1,0.1-0.1,0.2-0.2L-220.9,364.9L-220.9,364.9z M-221.7,371.2l1.9-3.3
			l-1.5-0.9l-1.9,3.3L-221.7,371.2L-221.7,371.2z M-218.5,373.1l1.9-3.3l-1.7-1l-1.9,3.3L-218.5,373.1L-218.5,373.1z"/>
		<path id="Fill-9" sketch:type="MSShapeGroup" fill="#FFFFFF" d="M-210.1,361.3c0-0.1,0.1-0.1,0.2-0.1c0.1,0,0.1,0,0.2,0.1l1.4,1.2
			c0.1,0,0.1,0.1,0.1,0.2c0,0.1,0,0.1-0.1,0.2l-4,4.6c-0.1,0.1-0.2,0.1-0.4,0l-7.1-6.1c-0.1-0.1-0.1-0.2,0-0.4l1.3-1.5
			c0.1-0.1,0.2-0.1,0.4,0l5.3,4.5c0.1,0,0.1,0.1,0.2,0.1c0.1,0,0.1,0,0.2-0.1L-210.1,361.3"/>
		<path id="Fill-10" sketch:type="MSShapeGroup" fill="#FFFFFF" d="M-210.3,354.7l1,1.2c0,0,0.1,0,0.1,0l0.9-0.8l1-0.8l1.2-1
			c0.1,0,0.1-0.1,0.2-0.1c0.1,0,0.1,0,0.2,0.1l0.9,1.1c0.1,0.1,0.1,0.3,0,0.4l-3.1,2.5c0,0,0,0.1,0,0.1l1,1.2c0,0,0.1,0,0.1,0
			l0.9-0.7l1.2-1l1.6-1.3c0.1,0,0.1-0.1,0.2-0.1c0.1,0,0.1,0,0.2,0.1l1.1,1.4c0,0.1,0.1,0.1,0.1,0.2c0,0.1,0,0.1-0.1,0.2l-3.8,3.1
			l-0.3,0.3c-0.1,0-0.1,0.1-0.2,0.1c-0.1,0-0.2,0.1-0.2,0.1l-1.8-0.2c-0.1,0-0.1-0.1-0.2-0.1c-0.1-0.1-0.1-0.1-0.2-0.2l-0.3-0.3
			l-3-3.7l-0.5-0.7c0-0.1-0.1-0.1-0.1-0.2c0-0.1-0.1-0.2-0.1-0.2l0.2-1.8c0-0.1,0.1-0.1,0.1-0.2c0.1-0.1,0.1-0.1,0.2-0.2l0.3-0.2
			l3.9-3.2c0.1,0,0.1-0.1,0.2-0.1c0.1,0,0.1,0,0.2,0.1l1.1,1.4c0,0.1,0.1,0.1,0.1,0.2c0,0.1,0,0.1-0.1,0.2l-2.6,2.1L-210.3,354.7
			C-210.3,354.6-210.3,354.6-210.3,354.7"/>
		<path id="Fill-11" sketch:type="MSShapeGroup" fill="#FFFFFF" d="M-197.4,343.9c0.1,0,0.1,0.1,0.2,0.1l3.3,6.3l0.3,0.5
			c0,0.1,0.1,0.1,0.1,0.2c0,0.1,0,0.2,0,0.2l-0.6,1.7c0,0.1-0.1,0.1-0.2,0.2c-0.1,0.1-0.2,0.1-0.2,0.1l-0.6,0.3l-4.8,2.5
			c-0.2,0.1-0.3,0-0.4-0.1l-4.3-8.2c0-0.1,0-0.1,0-0.2c0-0.1,0.1-0.1,0.1-0.2l1.7-0.9c0.1,0,0.1,0,0.2,0c0.1,0,0.1,0.1,0.2,0.1
			l3.2,6.1c0,0.1,0.1,0.1,0.2,0.1c0.1,0,0.1,0,0.2,0l2.5-1.3c0.1,0,0.1-0.1,0.1-0.2c0-0.1,0-0.1,0-0.2l-0.6-1.2l-2.6-4.9
			c0-0.1,0-0.1,0-0.2c0-0.1,0.1-0.1,0.1-0.2l1.7-0.9C-197.6,343.8-197.5,343.8-197.4,343.9"/>
		<path id="Fill-12" sketch:type="MSShapeGroup" fill="#FFFFFF" d="M-190.9,344l0.4,1.5c0,0,0,0,0.1,0l1.2-0.3l1.2-0.4l1.5-0.4
			c0.1,0,0.1,0,0.2,0c0.1,0,0.1,0.1,0.1,0.2l0.4,1.4c0,0.2,0,0.3-0.2,0.3l-1.4,0.4l-1.1,0.3l-1.4,0.4c0,0-0.1,0,0,0.1l0.4,1.5
			c0,0,0,0.1,0.1,0l1.1-0.3l1.5-0.4l1.9-0.5c0.1,0,0.1,0,0.2,0c0.1,0,0.1,0.1,0.1,0.2l0.5,1.7c0,0.1,0,0.1,0,0.2
			c0,0.1-0.1,0.1-0.2,0.1l-1.4,0.4l-3.3,0.9l-0.4,0.1c-0.1,0-0.2,0-0.3,0c-0.1,0-0.2,0-0.3,0l-1.6-0.9c-0.1-0.1-0.1-0.1-0.1-0.2
			c0-0.1-0.1-0.2-0.1-0.2l-1.7-5.8c0-0.1,0-0.2,0-0.3c0-0.1,0-0.2,0-0.3l0.9-1.6c0.1,0,0.1-0.1,0.2-0.1c0.1,0,0.2-0.1,0.2-0.1
			l0.3-0.1l3.8-1.1l1.1-0.3c0.1,0,0.1,0,0.2,0c0.1,0,0.1,0.1,0.1,0.2l0.5,1.7c0,0.1,0,0.1,0,0.2c0,0.1-0.1,0.1-0.2,0.1l-1,0.3
			l-2.2,0.6L-190.9,344C-190.9,343.9-190.9,344-190.9,344"/>
		<path id="Fill-13" sketch:type="MSShapeGroup" fill="#FFFFFF" d="M-176.1,346.5c0.1,0,0.1,0,0.2,0.1c0.1,0,0.1,0.1,0.1,0.2
			l0.2,1.8c0,0.1,0,0.1-0.1,0.2c0,0.1-0.1,0.1-0.2,0.1l-6.1,0.6c-0.2,0-0.3-0.1-0.3-0.2l-0.9-9.2c0-0.2,0.1-0.3,0.2-0.3l1.9-0.2
			c0.2,0,0.3,0.1,0.3,0.2l0.7,6.9c0,0.1,0,0.1,0.1,0.2c0.1,0,0.1,0.1,0.2,0.1L-176.1,346.5"/>
		<path id="Fill-14" sketch:type="MSShapeGroup" fill="#FFFFFF" d="M-160.5,342.2c0,0.1,0,0.2,0,0.2c0,0.1,0,0.2,0,0.3l-0.1,0.5
			l-1,5.5c0,0.1,0,0.2-0.1,0.2c0,0.1-0.1,0.2-0.1,0.2l-1.5,1c-0.1,0-0.2,0-0.3,0c-0.1,0-0.2,0-0.3,0l-0.6-0.1l-4.5-0.8l-1-0.2
			c-0.2,0-0.2-0.1-0.2-0.3l1.7-9.1c0-0.1,0-0.1,0.1-0.2c0.1,0,0.1-0.1,0.2,0l0.9,0.2l3.9,0.7l1.2,0.2c0.1,0,0.2,0,0.3,0.1
			s0.2,0.1,0.2,0.1L-160.5,342.2L-160.5,342.2z M-165.1,342.4l-1.2-0.2l-0.9,5l1.2,0.2l0.7,0.1l1.3,0.2l0.9-5l-1.3-0.2L-165.1,342.4
			L-165.1,342.4z"/>
		<path id="Fill-15" sketch:type="MSShapeGroup" fill="#FFFFFF" d="M-152.4,354c0,0.1,0,0.1,0,0.2c0,0-0.1,0-0.2,0l-2.1-0.8
			c-0.1,0-0.1-0.1-0.2-0.1c-0.1-0.1-0.1-0.1-0.1-0.2l-0.4-3.1c0,0,0-0.1-0.1-0.1l-1.5-0.6c0,0-0.1,0-0.1,0l-1,2.4
			c-0.1,0.2-0.2,0.2-0.3,0.1l-1.8-0.7c-0.2-0.1-0.2-0.2-0.1-0.3l3.5-8.6c0-0.1,0.1-0.1,0.1-0.1c0.1,0,0.1,0,0.2,0l5.6,2.3
			c0.1,0,0.1,0.1,0.2,0.1s0.1,0.1,0.2,0.2l0.7,1.7c0,0.1,0,0.2,0,0.3c0,0.1,0,0.2-0.1,0.2l-0.7,1.8l-0.4,0.9l-0.1,0.1
			c0,0.1-0.1,0.1-0.1,0.2c-0.1,0.1-0.1,0.1-0.2,0.2l-1.7,0.7L-152.4,354L-152.4,354z M-152.2,346.2l-3.2-1.3l-0.9,2.2l1.5,0.6
			l1.4,0.6l0,0l0.2,0.1l0.1-0.2L-152.2,346.2L-152.2,346.2z"/>
		<path id="Fill-16" sketch:type="MSShapeGroup" fill="#FFFFFF" d="M-138.7,351.6c0,0.1,0,0.1,0,0.2l-4.4,6.3l0,0l0,0
			c0,0.1-0.1,0.1-0.2,0.2c-0.1,0.1-0.1,0.1-0.2,0.1l-1.8,0.3c-0.1,0-0.2,0-0.3-0.1c-0.1,0-0.2-0.1-0.2-0.1l-3.7-2.5
			c-0.1,0-0.1-0.1-0.2-0.2c-0.1-0.1-0.1-0.1-0.1-0.2l-0.3-1.8c0-0.1,0-0.2,0.1-0.2c0-0.1,0.1-0.2,0.1-0.2l4.4-6.3
			c0-0.1,0.1-0.1,0.2-0.1c0.1,0,0.1,0,0.2,0l1.6,1.1c0.1,0,0.1,0.1,0.1,0.2c0,0.1,0,0.1,0,0.2l-3.5,5l-0.5,0.7c0,0.1-0.1,0.1,0,0.2
			s0.1,0.1,0.1,0.2l2.3,1.6c0.1,0,0.1,0.1,0.2,0c0.1,0,0.1-0.1,0.2-0.1l3.9-5.7c0-0.1,0.1-0.1,0.2-0.1c0.1,0,0.1,0,0.2,0l1.6,1.1
			C-138.8,351.5-138.7,351.5-138.7,351.6"/>
		<path id="Fill-17" sketch:type="MSShapeGroup" fill="#FFFFFF" d="M-129.8,362.8c-0.1,0.1-0.1,0.1-0.2,0.2l-5.7,5.2
			c-0.1,0.1-0.1,0.1-0.2,0.1c-0.1,0-0.1,0-0.2-0.1l-1.3-1.4c-0.1-0.1-0.1-0.1-0.1-0.2c0-0.1,0-0.1,0.1-0.2l1.4-1.3l2.7-2.5l1.2-1.1
			l-1.1-1.2l-5.3,4.8c-0.1,0.1-0.1,0.1-0.2,0.1c-0.1,0-0.1,0-0.2-0.1l-1.2-1.3c-0.1-0.1-0.1-0.1-0.1-0.2c0-0.1,0-0.1,0.1-0.2
			l0.9-0.8l4.4-4l-1.1-1.2l-5.3,4.8c-0.1,0.1-0.3,0.1-0.4,0l-1.3-1.4c-0.1-0.1-0.1-0.3,0-0.4l6-5.5l0.9-0.8c0.1-0.1,0.1-0.1,0.2-0.1
			c0.1,0,0.1,0,0.2,0.1l0.6,0.6l5,5.5c0.1,0.1,0.1,0.1,0.1,0.2c0,0.1,0.1,0.2,0.1,0.2l-0.1,1.8
			C-129.7,362.7-129.7,362.7-129.8,362.8"/>
		<path id="Fill-18" sketch:type="MSShapeGroup" fill="#FFFFFF" d="M-124.8,373c-0.1,0-0.1,0-0.2,0l-4.2,1.9c-0.1,0-0.1,0.1-0.1,0.1
			c0,0.1,0,0.1,0,0.2l1.8,4.1c0,0.1,0,0.1,0,0.2s-0.1,0.1-0.1,0.1l-1.7,0.8c-0.1,0-0.1,0-0.2,0c-0.1,0-0.1-0.1-0.1-0.1l-2.1-4.7
			l-0.1-0.2c0-0.1-0.1-0.1-0.1-0.2c0-0.1,0-0.2,0-0.3l0.7-1.7c0-0.1,0.1-0.1,0.2-0.2s0.2-0.1,0.2-0.1l0.1,0l1.4-0.6l3.1-1.4l1-0.5
			c0.1,0,0.1-0.1,0.2-0.1c0.1,0,0.2,0,0.3,0l1.7,0.7c0.1,0,0.1,0.1,0.2,0.2c0,0.1,0.1,0.1,0.1,0.1l0.1,0.1l0.1,0.2l0,0.1l0,0
			l0.1,0.3l1.9,4.3c0,0.1,0,0.1,0,0.2c0,0.1-0.1,0.1-0.1,0.1l-1.7,0.8c-0.1,0-0.1,0-0.2,0c-0.1,0-0.1-0.1-0.1-0.1l-1.8-4.1
			C-124.7,373.1-124.7,373-124.8,373"/>
		<path id="Fill-19" sketch:type="MSShapeGroup" fill="#FFFFFF" d="M-118.9,388.3c-0.1,0-0.1,0.1-0.2,0.1c-0.1,0-0.2,0.1-0.2,0.1
			l-0.3,0.1l-4.9,1.1l-0.7,0.2c-0.1,0-0.2,0-0.3,0c-0.1,0-0.2,0-0.3,0l-1.5-1c-0.1-0.1-0.1-0.1-0.1-0.2c0-0.1-0.1-0.2-0.1-0.2
			l-1-4.3c0-0.1,0-0.2,0-0.3c0-0.1,0-0.2,0-0.3l1-1.5c0.1-0.1,0.1-0.1,0.2-0.1c0.1,0,0.2-0.1,0.2-0.1l0.3-0.1l4.9-1.1l0.7-0.2
			c0.1,0,0.2,0,0.3,0c0.1,0,0.2,0,0.3,0l1.5,1c0,0.1,0.1,0.1,0.1,0.2c0,0.1,0.1,0.2,0.1,0.2l0.1,0.6l0.8,3.8c0,0.1,0,0.2,0,0.3
			c0,0.1,0,0.2,0,0.3L-118.9,388.3L-118.9,388.3z M-120.4,386.2l-0.7-3.2l-5,1.1l0.7,3.2L-120.4,386.2L-120.4,386.2z"/>
		<path id="Fill-20" sketch:type="MSShapeGroup" fill="#FFFFFF" d="M-124.7,394.4l-1.9,0.1c-0.2,0-0.3-0.1-0.3-0.2l-0.1-1.9
			c0-0.2,0.1-0.3,0.2-0.3l1.9-0.1c0.2,0,0.3,0.1,0.3,0.2l0.1,1.9C-124.5,394.3-124.5,394.4-124.7,394.4"/>
		<path id="Fill-21" sketch:type="MSShapeGroup" fill="#FFFFFF" d="M-203.9,437.2l-0.8,1.2c0,0,0,0.1,0,0.1l1,0.7l1,0.7l1.2,0.8
			c0.1,0,0.1,0.1,0.1,0.2s0,0.1,0,0.2l-0.8,1.1c-0.1,0.1-0.2,0.2-0.4,0.1l-1.1-0.8l-2.1-1.4c0,0-0.1,0-0.1,0l-0.8,1.2
			c0,0,0,0.1,0,0.1l0.9,0.6l2.9,2c0.1,0,0.1,0.1,0.1,0.2c0,0.1,0,0.1,0,0.2l-1,1.4c0,0.1-0.1,0.1-0.2,0.1c-0.1,0-0.1,0-0.2,0l-4-2.7
			l-0.4-0.2c-0.1,0-0.1-0.1-0.2-0.2c-0.1-0.1-0.1-0.1-0.1-0.2l-0.3-1.7c0-0.1,0-0.2,0.1-0.2c0-0.1,0.1-0.2,0.1-0.2l0.2-0.4l2.6-3.8
			l0.5-0.7c0-0.1,0.1-0.1,0.2-0.2c0.1-0.1,0.1-0.1,0.2-0.1l1.8-0.3c0.1,0,0.1,0,0.2,0.1c0.1,0,0.2,0.1,0.2,0.1l0.3,0.2l3.1,2.1
			l0.9,0.6c0.1,0,0.1,0.1,0.1,0.2c0,0.1,0,0.1,0,0.2l-1,1.4c0,0.1-0.1,0.1-0.2,0.1c-0.1,0-0.1,0-0.2,0l-0.9-0.6l-1.8-1.2
			L-203.9,437.2C-203.9,437.1-203.9,437.1-203.9,437.2"/>
		<path id="Fill-22" sketch:type="MSShapeGroup" fill="#FFFFFF" d="M-192.8,446.7c0,0.1,0,0.2-0.1,0.2l-0.8,1.9
			c0,0.1-0.1,0.1-0.1,0.2c-0.1,0.1-0.1,0.1-0.2,0.2l-1.7,0.6c-0.1,0-0.2,0-0.3,0c-0.1,0-0.2,0-0.2-0.1l-0.3-0.1l-2.8-1.3l-1.6-0.7
			c-0.2-0.1-0.2-0.2-0.1-0.3l0.7-1.5c0-0.1,0.1-0.1,0.1-0.1c0.1,0,0.1,0,0.2,0l2,0.9l1.1,0.5l1.2,0.5c0.1,0,0.1,0,0.2,0
			c0.1,0,0.1-0.1,0.1-0.1l0.5-1c0-0.1,0-0.1,0-0.2c0-0.1-0.1-0.1-0.1-0.1l-1.1-0.5l-1.5-0.7l-0.2-0.1c-0.1,0-0.1-0.1-0.2-0.1
			c-0.1-0.1-0.1-0.1-0.2-0.2l-0.6-1.7c0-0.1,0-0.2,0-0.3c0-0.1,0-0.2,0.1-0.2l0.1-0.2l0.7-1.7c0-0.1,0.1-0.1,0.1-0.2
			c0.1-0.1,0.1-0.1,0.2-0.2l1.7-0.6c0.1,0,0.2,0,0.2,0c0.1,0,0.2,0,0.2,0.1l0.2,0.1l3.5,1.5l0.8,0.3c0.1,0,0.1,0.1,0.1,0.1
			c0,0.1,0,0.1,0,0.2l-0.7,1.5c0,0.1-0.1,0.1-0.1,0.1c-0.1,0-0.1,0-0.2,0l-0.9-0.4l-2.3-1l-0.8-0.4c-0.1,0-0.1,0-0.2,0
			c-0.1,0-0.1,0.1-0.1,0.1l-0.4,1c0,0.1,0,0.1,0,0.2c0,0.1,0.1,0.1,0.1,0.1l0.8,0.4l1.7,0.8l0.3,0.1c0.1,0,0.1,0.1,0.2,0.1
			c0.1,0.1,0.1,0.1,0.2,0.2l0.6,1.7C-192.8,446.5-192.8,446.6-192.8,446.7"/>
		<path id="Fill-23" sketch:type="MSShapeGroup" fill="#FFFFFF" d="M-183.1,445.8c0,0.1-0.1,0.1-0.1,0.2c-0.1,0-0.1,0-0.2,0
			l-1.9-0.5c-0.1,0-0.1,0-0.2,0c-0.1,0-0.1,0.1-0.1,0.2l-1.6,6.5c0,0.1-0.1,0.1-0.1,0.2c-0.1,0-0.1,0-0.2,0l-1.9-0.5
			c-0.1,0-0.1-0.1-0.2-0.1c0-0.1,0-0.1,0-0.2l1.6-6.5c0-0.1,0-0.1,0-0.2c0-0.1-0.1-0.1-0.2-0.1l-1.9-0.5c-0.1,0-0.1-0.1-0.2-0.1
			c0-0.1,0-0.1,0-0.2l0.4-1.8c0-0.2,0.1-0.2,0.3-0.2l1.9,0.5l2.3,0.6l0.5,0.1l1.9,0.5c0.1,0,0.1,0.1,0.2,0.1c0,0.1,0,0.1,0,0.2
			L-183.1,445.8"/>
		<path id="Fill-24" sketch:type="MSShapeGroup" fill="#FFFFFF" d="M-179.8,451.5l-0.2,1.9c0,0.2-0.1,0.2-0.3,0.2l-1.9-0.2
			c-0.2,0-0.2-0.1-0.2-0.3l0.2-1.9c0-0.2,0.1-0.2,0.3-0.2l1.9,0.2C-179.9,451.2-179.8,451.3-179.8,451.5"/>
		<path id="Fill-25" sketch:type="MSShapeGroup" fill="#FFFFFF" d="M-165.6,445.9l0.3,3.2c0,0.1,0,0.1-0.1,0.2
			c0,0.1-0.1,0.1-0.2,0.1l-1.3,0.1l-2.8,0.3l-0.5,0.1c-0.1,0-0.2,0.1-0.2,0.2l0.1,1.2c0,0.1,0.1,0.2,0.3,0.2l0.3,0l3.1-0.3l1.1-0.1
			c0.1,0,0.1,0,0.2,0.1c0.1,0,0.1,0.1,0.1,0.2l0.2,1.6c0,0.1,0,0.1,0,0.2c0,0.1-0.1,0.1-0.2,0.1l-2.2,0.2l-2.2,0.2l-1,0.1l0,0
			l-1.3,0.1c-0.2,0-0.3-0.1-0.3-0.2l-0.1-1.3l0,0l-0.3-2.5c0,0,0-0.1,0.1-0.3l1.1-1.4c0.1,0,0.1-0.1,0.2-0.1c0.1,0,0.2,0,0.2-0.1
			l0.2,0l1.8-0.2l1-0.1c0.1,0,0.1,0,0.2-0.1c0-0.1,0.1-0.1,0.1-0.2l-0.1-1.1c0-0.1,0-0.1-0.1-0.2c-0.1,0-0.1-0.1-0.2,0l-2.1,0.2
			l-1.3,0.1l-0.9,0.1c-0.1,0-0.1,0-0.2-0.1c-0.1,0-0.1-0.1-0.1-0.2l-0.2-1.7c0-0.1,0-0.1,0.1-0.2c0-0.1,0.1-0.1,0.2-0.1l0.6-0.1
			l3.6-0.4l0.7-0.1c0.1,0,0.2,0,0.2,0c0.1,0,0.2,0,0.3,0l1.4,1.1c0.1,0.1,0.1,0.2,0.1,0.2l0,0.2l0,0.1c0,0,0,0,0,0.1l0,0
			L-165.6,445.9"/>
		<path id="Fill-26" sketch:type="MSShapeGroup" fill="#FFFFFF" d="M-157,442.6c0,0.1,0.1,0.1,0.1,0.2c0,0.1,0.1,0.2,0.1,0.2
			l1.7,5.6c0,0.1,0,0.2,0,0.2c0,0.1,0,0.2,0,0.2l-0.9,1.6c-0.1,0.1-0.1,0.1-0.2,0.1c-0.1,0-0.2,0.1-0.2,0.1l-0.3,0.1l-3,0.9l-0.1,0
			c-0.1,0-0.2,0-0.2,0c-0.1,0-0.2,0-0.2,0l-1.6-0.9c-0.1-0.1-0.1-0.1-0.1-0.2c0-0.1-0.1-0.2-0.1-0.2l-1.6-5.5l-0.1-0.2
			c0-0.1,0-0.2,0-0.2c0-0.1,0-0.2,0-0.2l0.9-1.6c0.1,0,0.1-0.1,0.2-0.1c0.1,0,0.2-0.1,0.2-0.1l0.4-0.1l2.6-0.8l0.5-0.1
			c0.1,0,0.2,0,0.3,0c0.1,0,0.2,0,0.3,0L-157,442.6L-157,442.6z M-160.1,449.7l2.6-0.8l-1.4-4.7l-2.6,0.8L-160.1,449.7L-160.1,449.7
			z"/>
		<path id="Fill-27" sketch:type="MSShapeGroup" fill="#FFFFFF" d="M-153,439.6l3.8,8.2c0.1,0.2,0,0.3-0.1,0.3l-1.7,0.8
			c-0.2,0.1-0.3,0-0.3-0.1l-2.8-6.1c0,0,0,0-0.1,0c0,0-0.1,0.1-0.1,0.1l-0.4,0.8c0,0.1-0.1,0.1-0.1,0.1c0,0-0.1,0-0.1-0.1l-0.8-1.7
			c0-0.1,0-0.1,0-0.2c0-0.1,0-0.2,0.1-0.2l0.4-0.8c0-0.1,0.1-0.1,0.2-0.2c0.1-0.1,0.1-0.1,0.2-0.1l0.3-0.1l1.4-0.7
			C-153.2,439.4-153.1,439.4-153,439.6"/>
		<path id="Fill-28" sketch:type="MSShapeGroup" fill="#FFFFFF" d="M-144.6,436.1c0.1,0.1,0.1,0.1,0.2,0.2l0.1,0.1l0.7,1.1
			c0,0.1,0.1,0.1,0.1,0.2c0,0.1,0,0.2,0,0.2l0,0.5l0,0.2c0,0.1,0,0.1,0,0.2c0,0.1,0,0.2,0.1,0.2c0,0.1,0.1,0.1,0.2,0.1
			c0.1,0,0.2,0.1,0.2,0.1l0.2,0.1l0.2,0.1l0.2,0.1c0.1,0,0.1,0.1,0.2,0.1c0.1,0.1,0.1,0.1,0.2,0.2l0.4,0.6l0.4,0.6l0.1,0.2
			c0,0.1,0.1,0.1,0.1,0.2c0,0.1,0.1,0.2,0.1,0.2l-0.4,1.7c0,0.1-0.1,0.1-0.2,0.2c-0.1,0.1-0.1,0.1-0.2,0.2l-0.2,0.1l-3.8,2.4
			l-0.5,0.3c-0.1,0.1-0.3,0.1-0.4-0.1l-0.9-1.3c0-0.1-0.1-0.1,0-0.2c0-0.1,0.1-0.1,0.1-0.2l0.5-0.3l2.6-1.6l0.8-0.5
			c0.1,0,0.1-0.1,0.1-0.2c0-0.1,0-0.1,0-0.2l-0.6-1c0-0.1-0.1-0.1-0.2-0.1c-0.1,0-0.1,0-0.2,0l-2.1,1.4l-1,0.6c-0.1,0-0.1,0.1-0.2,0
			c-0.1,0-0.1-0.1-0.2-0.1l-0.8-1.3c0-0.1-0.1-0.1,0-0.2c0-0.1,0.1-0.1,0.1-0.2l3.1-2c0.1,0,0.1-0.1,0.1-0.2c0-0.1,0-0.1,0-0.2
			l-0.6-1c0-0.1-0.1-0.1-0.2-0.1c-0.1,0-0.1,0-0.2,0l-3.1,2l-0.8,0.5c-0.1,0-0.1,0.1-0.2,0c-0.1,0-0.1,0-0.2-0.1l-0.9-1.3
			c0-0.1-0.1-0.1,0-0.2c0-0.1,0.1-0.1,0.1-0.2l0.7-0.4l3.5-2.2l0.3-0.2c0.1,0,0.1-0.1,0.2-0.1c0.1,0,0.2-0.1,0.2-0.1l1.7,0.4
			C-144.7,436-144.7,436-144.6,436.1"/>
		<path id="Fill-29" sketch:type="MSShapeGroup" fill="#FFFFFF" d="M-174.5,420c-0.6,0-1.2-0.4-1.4-1.1c-0.2-0.8,0.3-1.6,1-1.8
			l15.4-4.1c0.8-0.2,1.6,0.3,1.8,1c0.2,0.8-0.3,1.6-1,1.8l-15.4,4.1C-174.2,420-174.4,420-174.5,420"/>
		<path id="Fill-30" sketch:type="MSShapeGroup" fill="#FFFFFF" d="M-175.9,410.9h2.9v7.6h-2.9V410.9z"/>
		<path id="Fill-31" sketch:type="MSShapeGroup" fill="#FFFFFF" d="M-175.9,395.8h2.9v8.5h-2.9V395.8z"/>
		<path id="Fill-32" sketch:type="MSShapeGroup" fill="#FFFFFF" d="M-159.1,415.8c-0.8,0-1.5-0.6-1.5-1.5v-3.9
			c0-0.8,0.7-1.5,1.5-1.5c0.8,0,1.5,0.6,1.5,1.5v3.9C-157.6,415.2-158.3,415.8-159.1,415.8"/>
		<path id="Fill-33" sketch:type="MSShapeGroup" fill="#FFFFFF" d="M-174.5,420c-0.1,0-0.3,0-0.4-0.1l-15.4-4.1
			c-0.8-0.2-1.2-1-1-1.8c0.2-0.8,1-1.2,1.8-1l15.4,4.1c0.8,0.2,1.2,1,1,1.8C-173.3,419.6-173.8,420-174.5,420"/>
		<path id="Fill-34" sketch:type="MSShapeGroup" fill="#FFFFFF" d="M-189.9,415.8c-0.8,0-1.5-0.6-1.5-1.5v-3.9
			c0-0.8,0.7-1.5,1.5-1.5s1.5,0.6,1.5,1.5v3.9C-188.5,415.2-189.1,415.8-189.9,415.8"/>
		<path id="Fill-35" sketch:type="MSShapeGroup" fill="#FFFFFF" d="M-165.3,387.1h-18.4c-0.8,0-1.5-0.6-1.5-1.5
			c0-0.8,0.7-1.5,1.5-1.5h18.4c0.8,0,1.5,0.6,1.5,1.5C-163.8,386.5-164.5,387.1-165.3,387.1"/>
		<path id="Fill-36" sketch:type="MSShapeGroup" fill="#FFFFFF" d="M-175.9,380.2h2.9v9.1h-2.9V380.2z"/>
		<path id="Fill-37" sketch:type="MSShapeGroup" fill="#FFFFFF" d="M-174.5,381.6c-2.4,0-4.4-2-4.4-4.4c0-2.4,2-4.4,4.4-4.4
			c2.4,0,4.4,2,4.4,4.4C-170.1,379.7-172.1,381.6-174.5,381.6L-174.5,381.6z M-174.5,375.8c-0.8,0-1.5,0.7-1.5,1.5
			c0,0.8,0.7,1.5,1.5,1.5c0.8,0,1.5-0.7,1.5-1.5C-173,376.5-173.7,375.8-174.5,375.8L-174.5,375.8z"/>
		<path id="Fill-38" sketch:type="MSShapeGroup" fill="#FFFFFF" d="M-169.1,409.1h-14.6c-0.8,0-1.5-0.7-1.5-1.5
			c0-0.8,0.7-1.5,1.5-1.5h14.6c0.8,0,1.5,0.6,1.5,1.5C-167.6,408.4-168.3,409.1-169.1,409.1"/>
		<path id="Fill-39" sketch:type="MSShapeGroup" fill="#FFFFFF" d="M-169,401.5h-10.9c-0.8,0-1.5-0.6-1.5-1.5c0-0.8,0.7-1.5,1.5-1.5
			h10.9c0.8,0,1.5,0.7,1.5,1.5C-167.6,400.9-168.2,401.5-169,401.5"/>
		<path id="Fill-40" sketch:type="MSShapeGroup" fill="#FFFFFF" d="M-165.3,394h-14.6c-0.8,0-1.5-0.6-1.5-1.5c0-0.8,0.7-1.5,1.5-1.5
			h14.6c0.8,0,1.5,0.6,1.5,1.5C-163.8,393.3-164.5,394-165.3,394"/>
		<path id="Fill-41" sketch:type="MSShapeGroup" fill="#FFFFFF" d="M-165.3,395.8c-0.8,0-1.5-0.6-1.5-1.5v-1.9
			c0-0.8,0.7-1.5,1.5-1.5c0.8,0,1.5,0.6,1.5,1.5v1.9C-163.8,395.2-164.5,395.8-165.3,395.8"/>
		<path id="Fill-42" sketch:type="MSShapeGroup" fill="#FFFFFF" d="M-183.7,409.1c-0.8,0-1.5-0.7-1.5-1.5v-1.9
			c0-0.8,0.7-1.5,1.5-1.5s1.5,0.6,1.5,1.5v1.9C-182.2,408.4-182.9,409.1-183.7,409.1"/>
		<path id="Fill-43" sketch:type="MSShapeGroup" fill="#FFFFFF" d="M-179.9,401.5c-2.9,0-5.2-2.3-5.2-5.2c0-2.9,2.4-5.2,5.2-5.2
			c0.8,0,1.5,0.6,1.5,1.5c0,0.8-0.7,1.5-1.5,1.5c-1.3,0-2.3,1-2.3,2.3c0,1.3,1,2.3,2.3,2.3c0.8,0,1.5,0.7,1.5,1.5
			C-178.4,400.9-179.1,401.5-179.9,401.5"/>
		<path id="Fill-44" sketch:type="MSShapeGroup" fill="#FFFFFF" d="M-169.1,409.1c-0.8,0-1.5-0.7-1.5-1.5c0-0.8,0.7-1.5,1.5-1.5
			c1.3,0,2.3-1,2.3-2.3c0-1.3-1-2.3-2.3-2.3c-0.8,0-1.5-0.6-1.5-1.5c0-0.8,0.7-1.5,1.5-1.5c2.9,0,5.2,2.3,5.2,5.2
			C-163.8,406.7-166.2,409.1-169.1,409.1"/>
	</g>
</g>
</svg>
