<?xml version="1.0" encoding="UTF-8" standalone="no"?>
<svg width="33px" height="47px" viewBox="0 0 33 47" version="1.1" xmlns="http://www.w3.org/2000/svg" xmlns:xlink="http://www.w3.org/1999/xlink" xmlns:sketch="http://www.bohemiancoding.com/sketch/ns">
    <!-- Generator: Sketch 3.0.3 (7892) - http://www.bohemiancoding.com/sketch -->
    <title>Slice 1</title>
    <desc>Created with Sketch.</desc>
    <defs></defs>
    <g id="Page-1" stroke="none" stroke-width="1" fill="none" fill-rule="evenodd" sketch:type="MSPage">
        <g id="Small-Logo" sketch:type="MSLayerGroup" fill="#222222">
            <path d="M33.3110755,41.9184811 C33.3320849,41.8768742 33.3522704,41.8348553 33.3691604,41.7911887 C33.3860503,41.7466981 33.3988208,41.7013836 33.4111792,41.6552453 C33.4231258,41.6115786 33.4350723,41.5687358 33.4424874,41.5238333 C33.4515503,41.4723396 33.4548459,41.420022 33.4585535,41.3672925 C33.4602013,41.3372201 33.4672044,41.3087956 33.4672044,41.2783113 L33.4672044,37.4418239 C33.4672044,36.6455252 32.8216792,36 32.0253805,36 C31.2294937,36 30.5835566,36.6455252 30.5835566,37.4418239 L30.5835566,40.1734623 L18.1752201,43.516022 L18.1752201,37.8537736 L15.2915723,37.8537736 L15.2915723,43.516022 L2.8836478,40.1734623 L2.8836478,37.4418239 C2.8836478,36.6455252 2.23812264,36 1.4418239,36 C0.645525157,36 0,36.6455252 0,37.4418239 L0,41.2783113 C0,41.3079717 0.00700314465,41.3355723 0.0086509434,41.3648208 C0.0119465409,41.4187862 0.0156540881,41.4723396 0.0247169811,41.5250692 C0.0325440252,41.5687358 0.0440786164,41.6103428 0.0556132075,41.6527736 C0.0683836478,41.7001478 0.0811540881,41.7466981 0.0988679245,41.7920126 C0.115345912,41.8352673 0.135119497,41.8756384 0.155305031,41.9168333 C0.176314465,41.9588522 0.197323899,42.0000472 0.22245283,42.0400063 C0.246345912,42.0783176 0.272710692,42.1137453 0.299899371,42.1495849 C0.329147799,42.1878962 0.358396226,42.2249717 0.391764151,42.2603994 C0.421424528,42.2925314 0.453556604,42.3213679 0.486100629,42.3506164 C0.522764151,42.3827484 0.559015723,42.4144686 0.598974843,42.443305 C0.636050314,42.4704937 0.675185535,42.4935629 0.714732704,42.5166321 C0.755103774,42.5405252 0.794650943,42.5635943 0.837493711,42.5833679 C0.884044025,42.6047893 0.932242138,42.6212673 0.980852201,42.6381572 C1.01010063,42.648044 1.03646541,42.6624623 1.06694969,42.6707013 L16.358522,46.7901981 C16.3873585,46.7980252 16.4166069,46.8017327 16.4454434,46.8075 C16.4705723,46.8128553 16.4948774,46.8186226 16.5204182,46.8223302 C16.5896258,46.8330409 16.6584214,46.8392201 16.726805,46.8396321 C16.7284528,46.8396321 16.7305126,46.840044 16.7325723,46.840044 L16.7333962,46.840044 L16.7338082,46.840044 C16.7362799,46.840044 16.7383396,46.8396321 16.7403994,46.8396321 C16.808783,46.8392201 16.8775786,46.8330409 16.9463742,46.8223302 C16.9719151,46.8186226 16.9966321,46.8128553 17.0213491,46.8075 C17.0505975,46.8017327 17.079434,46.7980252 17.1082704,46.7901981 L32.4006667,42.6707013 C32.430739,42.6624623 32.4571038,42.648044 32.4863522,42.6381572 C32.5353742,42.6212673 32.5835723,42.6047893 32.6297107,42.5833679 C32.6725535,42.5635943 32.7121006,42.5405252 32.7520597,42.517044 C32.7920189,42.4935629 32.831566,42.4704937 32.8686415,42.443305 C32.9081887,42.4144686 32.9444403,42.3831604 32.9806918,42.3510283 C33.0136478,42.3213679 33.0461918,42.2921195 33.0762642,42.2599874 C33.1088082,42.2249717 33.1376447,42.1883082 33.1664811,42.1504088 C33.1940818,42.1141572 33.2212704,42.0779057 33.2455755,42.0391824 C33.2698805,42.0000472 33.290478,41.9596761 33.3110755,41.9184811" id="Fill-31" sketch:type="MSShapeGroup"></path>
            <path d="M7.4418239,14.107217 L15.112327,14.107217 L15.112327,16.2514151 L17.9959748,16.2514151 L17.9959748,14.107217 L25.6668899,14.107217 C26.4631887,14.107217 27.1087138,13.4616918 27.1087138,12.6653931 C27.1087138,11.8690943 26.4631887,11.2235692 25.6668899,11.2235692 L17.9959748,11.2235692 L17.9959748,8.41695597 C19.6783774,7.82086478 20.8886855,6.2183805 20.8886855,4.33453459 C20.8886855,1.94440252 18.944283,0 16.5541509,0 C14.1640189,0 12.2200283,1.94440252 12.2200283,4.33453459 C12.2200283,6.2183805 13.4303365,7.82086478 15.112327,8.41695597 L15.112327,11.2235692 L7.4418239,11.2235692 C6.64552516,11.2235692 6,11.8690943 6,12.6653931 C6,13.4616918 6.64552516,14.107217 7.4418239,14.107217 L7.4418239,14.107217 Z M16.5541509,2.8836478 C17.3541572,2.8836478 18.0050377,3.5345283 18.0050377,4.33453459 C18.0050377,5.13412893 17.3541572,5.78500943 16.5541509,5.78500943 C15.7545566,5.78500943 15.1036761,5.13412893 15.1036761,4.33453459 C15.1036761,3.5345283 15.7545566,2.8836478 16.5541509,2.8836478 L16.5541509,2.8836478 Z" id="Fill-30" sketch:type="MSShapeGroup"></path>
            <path d="M7.4418239,35.9115723 L21.9099088,35.9115723 C24.7766667,35.9115723 27.1087138,33.5791132 27.1087138,30.7123553 C27.1087138,27.8711384 24.8166258,25.5580409 21.9844717,25.5180818 C21.9717013,25.5176698 21.9597547,25.5139623 21.9469843,25.5139623 L17.9959748,25.5139623 L17.9959748,22.7374214 L15.112327,22.7374214 L15.112327,25.5139623 L11.198805,25.5139623 C9.92258491,25.5139623 8.8836478,24.4754371 8.8836478,23.198805 C8.8836478,21.9225849 9.92258491,20.8836478 11.198805,20.8836478 L24.225066,20.8836478 L24.225066,21.3203145 C24.225066,22.1162013 24.8710031,22.7621384 25.6668899,22.7621384 C26.4631887,22.7621384 27.1087138,22.1162013 27.1087138,21.3203145 L27.1087138,19.4418239 C27.1087138,18.6455252 26.4631887,18 25.6668899,18 L11.198805,18 C8.33204717,18 6,20.3320472 6,23.198805 C6,26.0655629 8.33204717,28.3976101 11.198805,28.3976101 L15.112327,28.3976101 L15.112327,31.1741509 L17.9959748,31.1741509 L17.9959748,28.3976101 L21.9099088,28.3976101 C23.1865409,28.3976101 24.225066,29.4361352 24.225066,30.7123553 C24.225066,31.9889874 23.1865409,33.0279245 21.9099088,33.0279245 L8.8836478,33.0279245 L8.8836478,32.5912579 C8.8836478,31.7949591 8.23812264,31.149434 7.4418239,31.149434 C6.64552516,31.149434 6,31.7949591 6,32.5912579 L6,34.4697484 C6,35.2656352 6.64552516,35.9115723 7.4418239,35.9115723" id="Fill-29" sketch:type="MSShapeGroup"></path>
        </g>
    </g>
</svg>