<?xml version="1.0" encoding="UTF-8" standalone="no"?>
<svg width="131px" height="132px" viewBox="0 0 131 132" version="1.1" xmlns="http://www.w3.org/2000/svg" xmlns:xlink="http://www.w3.org/1999/xlink" xmlns:sketch="http://www.bohemiancoding.com/sketch/ns">
    <!-- Generator: Sketch 3.0.3 (7892) - http://www.bohemiancoding.com/sketch -->
    <title>Imported Layers</title>
    <desc>Created with Sketch.</desc>
    <defs></defs>
    <g id="Page-1" stroke="none" stroke-width="1" fill="none" fill-rule="evenodd" sketch:type="MSPage">
        <g id="Imported-Layers" sketch:type="MSLayerGroup" transform="translate(0.000000, 1.000000)" fill="#FFFFFF">
            <path d="M65.3920692,130.497833 C29.4049686,130.497833 0.127292453,101.220157 0.127292453,65.2330566 C0.127292453,29.2451321 29.4049686,-0.0325440252 65.3920692,-0.0325440252 C101.379994,-0.0325440252 130.65767,29.2451321 130.65767,65.2330566 C130.65767,101.220157 101.379994,130.497833 65.3920692,130.497833 L65.3920692,130.497833 Z M65.3920692,2.85110377 C30.9946824,2.85110377 3.01094025,30.8356698 3.01094025,65.2330566 C3.01094025,99.6304434 30.9946824,127.614186 65.3920692,127.614186 C99.789456,127.614186 127.774022,99.6304434 127.774022,65.2330566 C127.774022,30.8356698 99.789456,2.85110377 65.3920692,2.85110377 L65.3920692,2.85110377 Z" id="Fill-1" sketch:type="MSShapeGroup"></path>
            <path d="M65.3920692,106.805371 C42.4691289,106.805371 23.8197547,88.1559969 23.8197547,65.2330566 C23.8197547,42.3097044 42.4691289,23.6603302 65.3920692,23.6603302 C88.3154214,23.6603302 106.964796,42.3097044 106.964796,65.2330566 C106.964796,88.1559969 88.3154214,106.805371 65.3920692,106.805371 L65.3920692,106.805371 Z M65.3920692,26.543978 C44.0592547,26.543978 26.7034025,43.8994182 26.7034025,65.2330566 C26.7034025,86.5658711 44.0592547,103.921311 65.3920692,103.921311 C86.7252956,103.921311 104.081148,86.5658711 104.081148,65.2330566 C104.081148,43.8994182 86.7252956,26.543978 65.3920692,26.543978 L65.3920692,26.543978 Z" id="Fill-2" sketch:type="MSShapeGroup"></path>
            <path d="M65.3920692,101.140651 C45.5925314,101.140651 29.4840629,85.0325943 29.4840629,65.2330566 C29.4840629,45.432695 45.5925314,29.3246384 65.3920692,29.3246384 C85.1924308,29.3246384 101.300487,45.432695 101.300487,65.2330566 C101.300487,85.0325943 85.1924308,101.140651 65.3920692,101.140651 L65.3920692,101.140651 Z M65.3920692,32.2082862 C47.1822453,32.2082862 32.3677107,47.0228208 32.3677107,65.2330566 C32.3677107,83.4428805 47.1822453,98.2574151 65.3920692,98.2574151 C83.6018931,98.2574151 98.4168396,83.4428805 98.4168396,65.2330566 C98.4168396,47.0228208 83.6018931,32.2082862 65.3920692,32.2082862 L65.3920692,32.2082862 Z" id="Fill-3" sketch:type="MSShapeGroup"></path>
            <path d="M14.9158742,54.8581038 C15.0106226,54.8473931 15.0958962,54.8461572 15.1688113,54.8556321 L15.5568679,54.9063019 L16.579739,55.0397736 L17.2578082,55.1279308 C17.3315472,55.1378176 17.4131132,55.1596509 17.5020943,55.1950786 C17.5914874,55.2300943 17.6664623,55.2651101 17.7274308,55.3017736 L18.8343396,56.7398899 C18.8623522,56.8090975 18.8796541,56.8935472 18.8854214,56.992827 C18.8916006,57.0921069 18.8891289,57.1782044 18.880066,57.2519434 L18.8401069,57.5563742 L18.1954057,62.5075975 C18.1727484,62.6830881 18.0734686,62.7592987 17.897978,62.7362296 L16.2246384,62.5183082 C16.1513113,62.5084214 16.0919906,62.4750535 16.0479119,62.4177925 C16.0042453,62.3609434 15.9869434,62.2954434 15.9960063,62.2212925 L16.2827233,60.022305 L16.4372044,58.8325943 L16.6085755,57.5192987 C16.6180503,57.4451478 16.604044,57.3800597 16.563673,57.3232107 C16.5245377,57.2667736 16.4681006,57.2334057 16.3939497,57.2239308 L15.2458459,57.0739811 C15.1725189,57.0640943 15.1066069,57.0813962 15.0493459,57.1262987 C14.9924969,57.1699654 14.958305,57.2292862 14.9488302,57.3030252 L14.5706604,60.2072704 L14.5459434,60.4008868 C14.5356447,60.4750377 14.5154591,60.5566038 14.4853868,60.6459969 C14.4549025,60.7362138 14.4219465,60.8111887 14.385695,60.8721572 L12.9475786,61.979066 C12.8688962,62.0062547 12.7819748,62.0231447 12.6876384,62.0293239 C12.5933019,62.036327 12.5088522,62.0342673 12.4351132,62.0243805 L12.1727013,61.9901887 L10.5961698,61.7854497 L10.3465283,61.7529057 C10.2727893,61.7434308 10.1912233,61.7232453 10.1014182,61.692761 C10.0120252,61.6622767 9.93663836,61.6247893 9.87731761,61.5790629 L8.76999686,60.1409465 C8.75104717,60.0725629 8.73580503,59.9914088 8.72509434,59.8958365 C8.7139717,59.8010881 8.7131478,59.7166384 8.72303459,59.6424874 L8.75763836,59.3800755 L9.3697956,54.6776698 C9.37927044,54.6035189 9.41305031,54.5446101 9.46989937,54.5005314 C9.52716038,54.4564528 9.59266038,54.4391509 9.66681132,54.4490377 L11.3677516,54.6702547 C11.4414906,54.6793176 11.5003994,54.7135094 11.544066,54.7707704 C11.5885566,54.8280314 11.6058585,54.8935314 11.5959717,54.9672704 L11.1391195,58.4803774 L11.0217138,59.3792516 C11.011827,59.4529906 11.0270692,59.5184906 11.0666164,59.5749277 C11.1061635,59.6317767 11.1626006,59.6651447 11.2363396,59.6742075 L12.3564308,59.8208616 C12.4305818,59.8299245 12.4960818,59.8126226 12.5533428,59.768544 C12.6101918,59.7244654 12.6439717,59.6659686 12.6534465,59.5918176 L13.0143145,56.8255755 L13.0571572,56.493956 C13.0666321,56.419805 13.0876415,56.3361792 13.1181258,56.2410189 C13.149434,56.1470943 13.1828019,56.0696478 13.2186415,56.0082673 L14.6567579,54.9017704 C14.7342044,54.8832327 14.8207138,54.8692264 14.9158742,54.8581038" id="Fill-4" sketch:type="MSShapeGroup"></path>
            <path d="M12.944695,42.9288648 C13.009783,42.8971447 13.0777547,42.8934371 13.1477862,42.9177421 L14.0977421,43.2435943 L20.3499025,45.3906761 L20.3898616,45.4046824 L20.3849182,45.4178648 C20.4557736,45.4417579 20.5270409,45.4763616 20.6007799,45.5212642 C20.673283,45.5657547 20.7321918,45.6106572 20.7762704,45.6547358 L21.5725692,47.2852327 C21.5865755,47.3593836 21.5861635,47.4446572 21.5721572,47.5431132 C21.5585629,47.6415692 21.5387893,47.7260189 21.5153082,47.7960503 L20.0788396,51.9781635 C20.0549465,52.0486069 20.0191069,52.1248176 19.9709088,52.2059717 C19.9231226,52.2883616 19.870805,52.3542736 19.8151918,52.4037075 L18.184695,53.2004182 C18.110956,53.2148365 18.0273302,53.2156604 17.9329937,53.202478 C17.8390692,53.1901195 17.7566792,53.1711698 17.6870597,53.1472767 L17.2380346,52.9936195 L11.3018396,50.9544686 L10.4837075,50.6739308 C10.4136761,50.6496258 10.3625943,50.6055472 10.3312862,50.5404591 C10.2991541,50.4749591 10.2950346,50.4073994 10.3197516,50.3373679 L10.9446792,48.5165503 C10.9685723,48.4465189 11.0134748,48.3950252 11.0785629,48.363305 C11.143239,48.3319969 11.2116226,48.3278774 11.2816541,48.3521824 L12.4421164,48.7509497 L17.0197013,50.3225377 L17.7846918,50.5853616 C17.8551352,50.6092547 17.9231069,50.6059591 17.9873711,50.574239 C18.0524591,50.5425189 18.0973616,50.4914371 18.1212547,50.4205818 L19.0184811,47.8092327 C19.0427862,47.7392013 19.0382547,47.6732893 19.0048868,47.6127327 C18.9715189,47.5521761 18.9200252,47.5101572 18.8495818,47.4858522 L18.0709969,47.2180849 L12.9792987,45.4697704 L12.3461321,45.252673 C12.2756887,45.2283679 12.2246069,45.1838774 12.1928868,45.1183774 C12.1607547,45.0537013 12.1570472,44.9861415 12.1813522,44.9152862 L12.8112233,43.0821101 C12.8351164,43.0116667 12.8800189,42.9605849 12.944695,42.9288648" id="Fill-5" sketch:type="MSShapeGroup"></path>
            <path d="M19.8646258,33.1936698 C19.9350692,33.2039686 20.0174591,33.2233302 20.1130314,33.2542264 C20.2090157,33.2847107 20.288522,33.3189025 20.3519623,33.3572138 L20.6151981,33.5149906 L20.7346635,33.5874937 L21.6788522,34.1555723 C21.7422925,34.1938836 21.803673,34.2499088 21.8625818,34.3232358 C21.9219025,34.3965629 21.9630975,34.4674182 21.9869906,34.5362138 L22.3350881,35.4457987 C22.3585692,35.5141824 22.4075912,35.5681478 22.4817421,35.6068711 C22.5558931,35.6464182 22.6251006,35.6579528 22.6889528,35.6418868 L23.5812358,35.5117107 C23.6529151,35.501 23.7361289,35.5022358 23.8312893,35.5158302 C23.9260377,35.5294245 24.0051321,35.5549654 24.0689843,35.5932767 L25.0609591,36.1906038 L25.324195,36.3487925 L25.4790881,36.4418931 C25.5429403,36.4806164 25.6084403,36.5337579 25.676,36.6017296 C25.7439717,36.6697013 25.798761,36.7323176 25.839956,36.7895786 L26.2778585,38.5502516 C26.2757987,38.6256384 26.2580849,38.7092642 26.2234811,38.8023648 C26.1897013,38.8962893 26.1530377,38.9745597 26.1147264,39.0384119 L25.9491226,39.3135943 L23.0012107,44.2129119 C22.9097579,44.3645094 22.7886447,44.3945818 22.6370472,44.3035409 L14.7255535,39.5426384 C14.6621132,39.504327 14.6213302,39.4503616 14.6040283,39.3803302 C14.5863145,39.3098868 14.5974371,39.2431509 14.6353365,39.1788868 L17.7348459,34.0282799 L17.7488522,34.0043868 C17.7875755,33.9413585 17.8419528,33.8733868 17.9115723,33.8017075 C17.9824277,33.7296164 18.0462799,33.6735912 18.1035409,33.6319843 L19.8646258,33.1936698 L19.8646258,33.1936698 Z M18.9525692,39.4981478 L20.8870849,36.2828805 L19.3933553,35.3844182 L17.4584277,38.5988616 L18.9525692,39.4981478 L18.9525692,39.4981478 Z M22.1793711,41.4400786 L24.1134748,38.2248113 L22.4883333,37.2468428 L20.5538176,40.4616981 L22.1793711,41.4400786 L22.1793711,41.4400786 Z" id="Fill-6" sketch:type="MSShapeGroup"></path>
            <path d="M30.6247516,29.8020881 C30.6741855,29.7464748 30.7330943,29.7184623 30.8023019,29.7172264 C30.8715094,29.7168145 30.9345377,29.7407075 30.989739,29.7897296 L32.3668868,31.0119843 C32.4225,31.0614182 32.4538082,31.120739 32.4616352,31.1891226 C32.4682264,31.2583302 32.4476289,31.3197107 32.398195,31.3757358 L28.3989874,35.8816415 C28.2811698,36.0142893 28.157173,36.0217044 28.0245252,35.9047107 L21.1190126,29.7757233 C20.9867767,29.6583176 20.9793616,29.5334969 21.0963553,29.401673 L22.3738113,27.9619088 C22.4916289,27.8300849 22.6160377,27.8226698 22.7482736,27.9396635 L27.8910535,32.5036541 C27.9470786,32.5530881 28.0088711,32.5740975 28.0776667,32.5670943 C28.1460503,32.5596792 28.2053711,32.5279591 28.254805,32.4723459 L30.6247516,29.8020881" id="Fill-7" sketch:type="MSShapeGroup"></path>
            <path d="M30.5423616,23.2150126 L31.4861384,24.4063711 C31.5092075,24.4356195 31.5388679,24.4356195 31.5751195,24.406783 L33.5104591,22.8735063 L34.6915189,21.9387925 C34.7491918,21.8926541 34.8146918,21.8737044 34.8863711,21.8819434 C34.9584623,21.8905943 35.0173711,21.9239623 35.0635094,21.9816352 L35.9298396,23.0757736 C36.0390063,23.2141887 36.0245881,23.3377736 35.886173,23.4473522 L34.7821478,24.3223333 L33.9075786,25.0148208 L32.7705975,25.9153428 C32.733934,25.9441792 32.7298145,25.9771352 32.7586509,26.0133868 L33.6941887,27.1944465 C33.7230252,27.231522 33.7551572,27.2344057 33.7918208,27.2055692 L37.4552893,24.3050314 C37.5129623,24.2584811 37.5784623,24.2399434 37.6501415,24.2477704 C37.7218208,24.2564214 37.7811415,24.2897893 37.8268679,24.3482862 L38.9094717,25.7147233 C38.9556101,25.7728082 38.9741478,25.8383082 38.9663208,25.9099874 C38.9576698,25.9816667 38.9247138,26.0405755 38.8666289,26.0871258 L35.0396164,29.1178396 L34.7005818,29.3864308 C34.6420849,29.4321572 34.5708176,29.4774717 34.4867799,29.5203145 C34.4023302,29.5635692 34.3228239,29.5911698 34.248673,29.6014686 L32.4463931,29.3926101 C32.3763616,29.3645975 32.3059182,29.3201069 32.2330031,29.2583145 C32.1609119,29.1973459 32.1020031,29.1376132 32.0554528,29.0791164 L31.7868616,28.7404937 L28.3318396,24.3779465 C28.2857013,24.3198616 28.2412107,24.2481824 28.197544,24.1637327 C28.1551132,24.079283 28.1275126,24.0006006 28.1163899,23.9256258 L28.3256604,22.122934 C28.3594403,22.0615535 28.4051667,21.9923459 28.4640755,21.9157233 C28.5225723,21.8403365 28.5806572,21.778544 28.6387421,21.7324057 L28.9011541,21.524783 L32.8047893,18.4331006 C32.8624623,18.3873742 32.9283742,18.3684245 32.9996415,18.3762516 C33.0713208,18.3853145 33.1306415,18.4182704 33.1767799,18.4767673 L34.2676226,19.854327 C34.3145849,19.9128239 34.3318868,19.9758522 34.3203522,20.0442358 C34.3092296,20.1126195 34.2746258,20.1694686 34.2161289,20.2156069 L33.3745157,20.8825535 L31.6356761,22.2592893 L30.5534843,23.1165566 C30.5164088,23.1453931 30.5131132,23.1783491 30.5423616,23.2150126" id="Fill-8" sketch:type="MSShapeGroup"></path>
            <path d="M43.434739,12.6398522 C43.5035346,12.6625094 43.5546164,12.7074119 43.5883962,12.7733239 L47.012522,19.5754371 C47.0458899,19.642173 47.0726667,19.7220912 47.0940881,19.8151918 C47.1150975,19.9091164 47.1278679,19.9910943 47.1323994,20.0615377 L46.5630849,21.7847233 C46.5218899,21.8469277 46.4617453,21.9091321 46.3830629,21.9692767 C46.3039686,22.0302453 46.2314654,22.0767956 46.1651415,22.1101635 L45.5921195,22.3989403 L40.7706604,24.8257358 C40.6128836,24.9052421 40.4946541,24.8661069 40.4147358,24.7083302 L36.2631069,16.4610975 C36.229739,16.3947736 36.2243836,16.3272138 36.2466289,16.2588302 C36.2692862,16.1904465 36.3137767,16.1389528 36.3805126,16.1055849 L38.0995786,15.2396667 C38.1659025,15.2062987 38.2334623,15.2009434 38.3022579,15.2236006 C38.3706415,15.2466698 38.4217233,15.2911604 38.4555031,15.3574843 L41.5471855,21.4988302 C41.5809654,21.565566 41.6320472,21.6104686 41.7004308,21.6327138 C41.7692264,21.6553711 41.8371981,21.6500157 41.9031101,21.6166478 L44.3698648,20.3746195 C44.4361887,20.3412516 44.4790314,20.2914057 44.4979811,20.2250818 C44.5161069,20.1583459 44.5086918,20.0916101 44.4753239,20.0252862 L41.3832296,13.8835283 C41.3498616,13.8172044 41.3440943,13.7496447 41.3667516,13.6808491 C41.3894088,13.6124654 41.4338994,13.5613836 41.5006352,13.5280157 L43.2320597,12.6555063 C43.2983836,12.6225503 43.3663553,12.617195 43.434739,12.6398522" id="Fill-9" sketch:type="MSShapeGroup"></path>
            <path d="M49.9002893,12.8833145 L50.296173,14.3510912 C50.3052358,14.3873428 50.3328365,14.3992893 50.377739,14.3873428 L51.5221352,14.0783805 L52.7616918,13.7442893 L54.2154623,13.3525252 C54.2875535,13.3327516 54.3547013,13.3418145 54.4177296,13.378066 C54.4803459,13.4139057 54.5219528,13.4674591 54.5404906,13.5391384 L54.9038302,14.8862138 C54.9499686,15.057173 54.8869403,15.1651038 54.716805,15.2108302 L53.3565472,15.5774654 L52.2792987,15.8678899 L50.8786698,16.2452358 C50.8333553,16.2575943 50.8177013,16.2856069 50.8296478,16.3313333 L51.2214119,17.7851038 C51.2337704,17.8304182 51.261783,17.8464843 51.3070975,17.8345377 L52.3843459,17.5441132 L53.9056761,17.1338113 L55.8183585,16.6188742 C55.8900377,16.5986887 55.9575975,16.6073396 56.0198019,16.6431792 C56.0832421,16.6794308 56.1236132,16.7333962 56.1429748,16.8050755 L56.5973553,18.4887138 C56.616717,18.560805 56.6076541,18.6279528 56.5718145,18.6905692 C56.5355629,18.7531855 56.4815975,18.7939686 56.4099182,18.8133302 L54.9689182,19.2013868 L51.6968019,20.083783 L51.2790849,20.1962453 C51.2078176,20.2160189 51.1237799,20.2287893 51.0294434,20.2349686 C50.934695,20.2415597 50.8510692,20.2345566 50.778978,20.2156069 L49.2057421,19.3105535 C49.1530126,19.2578239 49.1056384,19.1886164 49.0636195,19.1037547 C49.0211887,19.0188931 48.9907044,18.9406226 48.9713428,18.8689434 L48.8588805,18.4512264 L47.4104654,13.0777547 C47.3911038,13.0056635 47.3783333,12.9224497 47.3717421,12.8285252 C47.3655629,12.7337767 47.3721541,12.6501509 47.3911038,12.5772358 L48.2961572,11.0044119 C48.3513585,10.9603333 48.4213899,10.9154308 48.5050157,10.8684686 C48.5886415,10.8219182 48.6665,10.7889623 48.7381792,10.7700126 L49.0615597,10.6826792 L52.7917642,9.67669811 L53.8694245,9.38668553 C53.9406918,9.3673239 54.0082516,9.37638679 54.0708679,9.41181447 C54.1334843,9.44847799 54.1746792,9.5016195 54.1940409,9.57329874 L54.651717,11.2705314 C54.6710786,11.3426226 54.6616038,11.4072987 54.6249403,11.4657956 C54.5874528,11.5242925 54.5326635,11.5626038 54.4609843,11.5815535 L53.4241069,11.8616792 L51.2827925,12.4384088 L49.9493113,12.7976289 C49.9048208,12.8103994 49.8879308,12.8384119 49.9002893,12.8833145" id="Fill-10" sketch:type="MSShapeGroup"></path>
            <path d="M64.5364497,15.5988868 C64.6106006,15.5927075 64.672805,15.6124811 64.7234748,15.6598553 C64.7745566,15.7068176 64.8033931,15.7669623 64.8091604,15.8411132 L64.9685849,17.6751132 C64.9751761,17.7492642 64.9574623,17.8143522 64.9154434,17.8691415 C64.8730126,17.9243428 64.8153396,17.9544151 64.7411887,17.9614182 L58.7386698,18.4812987 C58.5623553,18.4965409 58.466783,18.4166226 58.4519528,18.2403082 L57.6540063,9.04188365 C57.6387642,8.86556918 57.7186824,8.76999686 57.8954088,8.75475472 L59.8130346,8.58873899 C59.9885252,8.57349686 60.0845094,8.65382704 60.0997516,8.82972956 L60.6933711,15.6796289 C60.7003742,15.7541918 60.7308585,15.8122767 60.7860597,15.8542956 C60.8404371,15.8963145 60.9055252,15.9136164 60.9792642,15.9074371 L64.5364497,15.5988868" id="Fill-11" sketch:type="MSShapeGroup"></path>
            <path d="M79.9973333,11.5098742 C80.0121635,11.5786698 80.0220503,11.6614717 80.0269937,11.757044 C80.0319371,11.8530283 80.0278176,11.937066 80.0133994,12.0103931 L78.8657075,17.8967421 C78.8512893,17.9700692 78.8241006,18.0499874 78.7837296,18.1364969 C78.7429465,18.2234182 78.7029874,18.2963333 78.6630283,18.3548302 L77.1577642,19.3686384 C77.0869088,19.3929434 77.0016352,19.4048899 76.9023553,19.404066 C76.8026635,19.4036541 76.716978,19.396239 76.6440629,19.3822327 L76.0961698,19.2751258 L71.6743019,18.413327 L70.7161069,18.2258899 C70.5422642,18.192522 70.4726447,18.0891226 70.5068365,17.9152799 L72.0516478,9.98895597 L72.2736887,8.85279874 C72.287695,8.77988365 72.3247704,8.72344654 72.3849151,8.68266352 C72.4446478,8.64229245 72.5113836,8.62911006 72.5842987,8.64311635 L73.433327,8.80913208 L77.3340786,9.56959119 L78.5118428,9.79945912 C78.5851698,9.81346541 78.6675597,9.84188994 78.7590126,9.88267296 C78.8500535,9.92469182 78.9250283,9.96506289 78.9835252,10.005022 L79.9973333,11.5098742 L79.9973333,11.5098742 Z M75.4572358,11.6194528 L74.2794717,11.3895849 L73.3167453,16.3321572 L74.5484748,16.5715 L75.2195409,16.7025 L76.5336604,16.9587327 L77.4967987,12.0169843 L75.4572358,11.6194528 L75.4572358,11.6194528 Z" id="Fill-12" sketch:type="MSShapeGroup"></path>
            <path d="M87.9244811,23.3299465 C87.9327201,23.4045094 87.9158302,23.4551792 87.8738113,23.4827799 C87.8322044,23.5107925 87.7770031,23.5095566 87.7086195,23.4807201 L85.6690566,22.6086226 C85.600673,22.5793742 85.5401164,22.5307642 85.4882107,22.4632044 C85.436717,22.3956447 85.4062327,22.3243774 85.3975818,22.2502264 L85.002934,19.199327 C85.0000503,19.1577201 84.977805,19.1280597 84.9353742,19.109522 L83.4857233,18.4899497 C83.4432925,18.4718239 83.4123962,18.4837704 83.3942704,18.5270252 L82.374695,20.9122138 C82.3054874,21.074522 82.1893176,21.1210723 82.0265975,21.0514528 L80.2572736,20.2955252 C80.0945535,20.2254937 80.0480031,20.1093239 80.1176226,19.9474277 L83.7468994,11.4571447 C83.7761478,11.388761 83.8243459,11.3409748 83.8919057,11.3146101 C83.9586415,11.2874214 84.0262013,11.2882453 84.0949969,11.3179057 L89.6480786,13.6915597 C89.7164623,13.7208082 89.7910252,13.7652987 89.8717673,13.8254434 C89.9520975,13.8847642 90.0171855,13.9407893 90.0657956,13.9918711 L90.7409811,15.6759214 C90.7409811,15.7467767 90.733566,15.8295786 90.7187358,15.924327 C90.7030818,16.0186635 90.6812484,16.1002296 90.652,16.1690252 L89.456522,18.9645157 C89.4355126,19.0160094 89.3955535,19.0724465 89.3387044,19.133827 C89.2818553,19.1960314 89.2237704,19.2495849 89.1640377,19.2940755 L87.4688648,19.9956258 L87.9244811,23.3299465 L87.9244811,23.3299465 Z M88.2285,15.5576918 L85.1248711,14.2308019 L84.1930409,16.4108396 L87.0268428,17.6219717 L87.065978,17.6388616 L87.2966698,17.7377296 L87.3675252,17.570478 L88.2285,15.5576918 L88.2285,15.5576918 Z" id="Fill-13" sketch:type="MSShapeGroup"></path>
            <path d="M101.475566,21.1309591 C101.487101,21.2022264 101.47227,21.2685503 101.429428,21.328695 L97.0293931,27.5446038 L97.0050881,27.5787956 L96.9939654,27.5709686 C96.9511226,27.6319371 96.8979811,27.6908459 96.8341289,27.7481069 C96.7706887,27.8061918 96.7117799,27.8490346 96.6569906,27.8791069 L94.8678931,28.1847736 C94.7929182,28.1773585 94.7109403,28.1534654 94.6203113,28.1118585 C94.5300943,28.0710755 94.4547075,28.0290566 94.393739,27.9853899 L93.5624245,27.3975377 L91.0923742,25.6488113 L90.7850597,25.4313019 C90.7240912,25.3884591 90.6614748,25.332434 90.5963868,25.2636384 C90.5308868,25.1948428 90.4826887,25.1260472 90.4509686,25.0584874 L90.1448899,23.2698019 C90.1518931,23.195239 90.1745503,23.1144969 90.2136855,23.0275755 C90.2519969,22.941066 90.2927799,22.867327 90.3356226,22.8067704 L90.6095692,22.4195377 L94.7356572,16.5908616 C94.7785,16.530305 94.835761,16.4936415 94.9074403,16.481695 C94.9782956,16.4697484 95.0442075,16.4849906 95.1047642,16.5278333 L96.6763522,17.6396855 C96.7364969,17.6829403 96.7731604,17.7397893 96.7851069,17.8110566 C96.7974654,17.8823239 96.7818113,17.9482358 96.7393805,18.0092044 L92.7665377,23.6216069 C92.723283,23.6821635 92.7080409,23.7480755 92.7203994,23.8193428 C92.7323459,23.891022 92.7685975,23.9478711 92.829978,23.9907138 L95.0837547,25.586195 C95.1447233,25.6294497 95.2085755,25.643456 95.2761352,25.6290377 C95.343283,25.6142075 95.3984843,25.5758962 95.441739,25.5153396 L99.027761,20.4495943 L99.4141698,19.9025252 C99.4574245,19.8419686 99.5142736,19.805717 99.5859528,19.7933585 C99.6572201,19.7814119 99.7231321,19.7966541 99.7841006,19.8394969 L101.366399,20.9595881 C101.426544,21.0024308 101.463208,21.0596918 101.475566,21.1309591" id="Fill-14" sketch:type="MSShapeGroup"></path>
            <path d="M110.183358,32.414261 C110.129393,32.4933553 110.074604,32.5580314 110.018991,32.6070535 L104.322962,37.6625 C104.267349,37.711934 104.203497,37.7341792 104.131406,37.7300597 C104.059314,37.7255283 103.998346,37.695456 103.949324,37.6398428 L102.661981,36.1897799 C102.612959,36.1341667 102.591538,36.0719623 102.599365,36.0031667 C102.606368,35.934783 102.638088,35.8758742 102.693701,35.8264403 L108.024742,31.0951981 L106.987453,29.9269088 L102.439528,33.9636038 L101.657236,34.657739 C101.601211,34.7075849 101.538594,34.731478 101.469799,34.7306541 C101.400179,34.7298302 101.34127,34.7014057 101.292248,34.6457925 L100.125607,33.331261 C100.076173,33.2756478 100.053516,33.2117956 100.058459,33.1401164 C100.061755,33.0676132 100.092239,33.0066447 100.147852,32.9576226 L105.478481,28.2263805 L104.441604,27.0585031 L100.101714,30.9094088 L99.1109748,31.7893333 C98.9791509,31.906327 98.8539182,31.8993239 98.7369245,31.7666761 L97.4594686,30.3273239 C97.3420629,30.1950881 97.349066,30.0702673 97.4813019,29.9532736 L103.490412,24.6209969 L104.387226,23.8242862 C104.443252,23.7752642 104.506692,23.7526069 104.579195,23.7567264 C104.651286,23.7612579 104.711843,23.7909182 104.761277,23.8469434 L105.298459,24.4512736 L109.705497,29.4169151 L110.168116,29.9388553 C110.217138,29.9944686 110.265748,30.0665597 110.313123,30.154717 C110.360497,30.2432862 110.395513,30.3211447 110.417758,30.3882925 L110.309827,32.2000472 C110.279343,32.2638994 110.237736,32.3351667 110.183358,32.414261" id="Fill-15" sketch:type="MSShapeGroup"></path>
            <path d="M114.976393,42.6141352 C114.913365,42.5857107 114.847865,42.5861226 114.779481,42.6149591 L110.626616,44.3966415 C110.558233,44.4267138 110.510858,44.4745 110.48367,44.5420597 C110.457305,44.6087956 110.458129,44.6763553 110.487789,44.7451509 L112.252582,48.8592925 C112.28183,48.9276761 112.285126,48.9948239 112.263292,49.0603239 C112.240223,49.1254119 112.195321,49.1727862 112.126525,49.2020346 L110.43506,49.9278899 C110.366264,49.9571384 110.298292,49.9583742 110.231557,49.9315975 C110.164409,49.9048208 110.116211,49.8570346 110.08655,49.7890629 L108.063053,45.072239 L107.991374,44.9058113 C107.962126,44.8370157 107.937821,44.7562736 107.918459,44.6639969 C107.898686,44.5704843 107.892506,44.4868585 107.901569,44.4131195 L108.574695,42.7278333 C108.620009,42.6676887 108.680978,42.6108396 108.760072,42.5576981 C108.837519,42.5037327 108.910846,42.4617138 108.979642,42.4328774 L109.056264,42.3995094 L110.415286,41.8170126 L113.465774,40.5078365 L114.144667,40.2165881 L114.491116,40.0682862 C114.5595,40.0382138 114.63983,40.0143208 114.732519,39.9945472 C114.825208,39.9747736 114.908833,39.9694182 114.983396,39.9780692 L116.668682,40.6516069 C116.719764,40.700217 116.770022,40.7521226 116.819044,40.8069119 C116.867242,40.8617013 116.899374,40.9066038 116.914616,40.9403836 L116.963638,41.0557296 L117.035318,41.2225692 L117.056739,41.2736509 L117.068274,41.2996038 L117.194742,41.5941478 L119.059226,45.9393931 C119.088475,46.0077767 119.089299,46.0757484 119.062522,46.1428962 C119.035745,46.2096321 118.988371,46.2582421 118.919987,46.2874906 L117.22811,47.0133459 C117.159314,47.0425943 117.091755,47.0438302 117.025019,47.0170535 C116.957459,46.9902767 116.909261,46.9424906 116.880013,46.8741069 L115.114808,42.7599654 C115.085148,42.6911698 115.039009,42.6429717 114.976393,42.6141352" id="Fill-16" sketch:type="MSShapeGroup"></path>
            <path d="M120.571906,57.9061195 C120.513821,57.9464906 120.441318,57.9876855 120.355632,58.0292925 C120.268711,58.0704874 120.189204,58.0993239 120.116289,58.1137421 L119.856761,58.1672956 L114.952912,59.1773962 L114.242299,59.3236384 C114.169384,59.3388805 114.084934,59.3442358 113.989362,59.3401164 C113.893789,59.3364088 113.810575,59.326934 113.741368,59.3129277 L112.226217,58.3151855 C112.176371,58.2583365 112.132704,58.1845975 112.094805,58.0931447 C112.057318,58.0012799 112.030541,57.918478 112.015299,57.8455629 L111.12384,53.5147358 C111.108597,53.4418208 111.10077,53.358195 111.099947,53.2634465 C111.099535,53.1686981 111.111069,53.0854843 111.13455,53.014217 L112.132704,51.499066 C112.18873,51.4492201 112.260821,51.4059654 112.347742,51.3688899 C112.435487,51.3322264 112.515406,51.3062736 112.588321,51.2910314 L112.875038,51.2321226 L117.751698,50.2273774 L118.461899,50.0811352 C118.535226,50.066305 118.618852,50.0588899 118.714013,50.058478 C118.808349,50.0576541 118.891151,50.0691887 118.96283,50.0926698 L120.478805,51.09 C120.519176,51.1480849 120.559547,51.2205881 120.601566,51.3070975 C120.642761,51.3936069 120.671186,51.4727013 120.686428,51.5460283 L120.807129,52.1334686 L121.578299,55.8764434 C121.592717,55.9489465 121.599308,56.0358679 121.596425,56.1359717 C121.592717,56.2364874 121.584478,56.3213491 121.57006,56.3909686 L120.571906,57.9061195 L120.571906,57.9061195 Z M119.140792,55.7944654 L118.479201,52.5841415 L113.547752,53.5995975 L114.208931,56.8099214 L119.140792,55.7944654 L119.140792,55.7944654 Z" id="Fill-17" sketch:type="MSShapeGroup"></path>
            <path d="M114.730459,63.8975157 L112.808302,63.9980314 C112.631987,64.0070943 112.538887,63.9234686 112.530236,63.747566 L112.42972,61.8254088 C112.419833,61.6486824 112.504283,61.5564057 112.679774,61.5465189 L114.602343,61.4464151 C114.778657,61.4373522 114.871758,61.520566 114.880821,61.6972925 L114.981336,63.6198616 C114.990811,63.7953522 114.906774,63.8884528 114.730459,63.8975157" id="Fill-18" sketch:type="MSShapeGroup"></path>
            <path d="M97.5480377,109.352456 L96.6804717,108.10466 C96.6594623,108.073764 96.6298019,108.071704 96.5914906,108.098069 L95.6176415,108.774903 L94.5638742,109.506525 L93.3272013,110.365852 C93.2658208,110.408283 93.1999088,110.423525 93.1282296,110.410343 C93.0573742,110.397572 93.0009371,110.360497 92.9580943,110.299528 L92.1626195,109.153896 C92.0616918,109.00889 92.0839371,108.885717 92.2293553,108.785201 L94.3022862,107.344613 L95.4940566,106.517418 C95.531956,106.491053 95.5377233,106.458509 95.5109465,106.420198 L94.6520314,105.183113 C94.6252547,105.14439 94.5931226,105.139035 94.5548113,105.165811 L93.6386352,105.801862 L92.3438774,106.701972 L90.7175,107.831126 C90.6561195,107.873557 90.5897956,107.888387 90.5189403,107.875204 C90.4480849,107.862846 90.3908239,107.82577 90.3483931,107.764802 L89.3535346,106.332865 C89.3115157,106.271896 89.2970975,106.205572 89.309456,106.134717 C89.3226384,106.06345 89.3593019,106.006601 89.4202704,105.964582 L93.4293648,103.17939 L93.7844654,102.93222 C93.8462579,102.890201 93.9195849,102.84983 94.0069182,102.811931 C94.0938396,102.774443 94.1745818,102.752198 94.2491447,102.745607 L96.0353585,103.06734 C96.1029182,103.099472 96.1713019,103.148906 96.2392736,103.214406 C96.3076572,103.280318 96.3628585,103.343346 96.4057013,103.405138 L96.6520472,103.759827 L99.8269434,108.330821 C99.8689623,108.391789 99.9089214,108.465528 99.9472327,108.552862 C99.9851321,108.639371 100.007377,108.720113 100.013557,108.7955 L99.6918239,110.581302 C99.6543365,110.640623 99.6036667,110.706947 99.5410503,110.779038 C99.4776101,110.851541 99.4158176,110.908802 99.3544371,110.951233 L99.0796667,111.142377 L95.9064182,113.345896 L94.9902421,113.982358 C94.9288616,114.025201 94.8625377,114.040031 94.7916824,114.027261 C94.7204151,114.014079 94.663978,113.977827 94.6211352,113.916447 L93.6188616,112.472563 C93.5760189,112.411594 93.5628365,112.347742 93.5780786,112.280182 C93.5933208,112.212623 93.632044,112.158245 93.6930126,112.115403 L94.5749969,111.502833 L96.3966384,110.238148 L97.5307358,109.449676 C97.5690472,109.423311 97.5739906,109.390767 97.5480377,109.352456" id="Fill-19" sketch:type="MSShapeGroup"></path>
            <path d="M82.5765503,113.820462 C82.5176415,113.744252 82.4735629,113.67216 82.4443145,113.604189 L82.2873616,113.246616 L81.8741761,112.30078 L81.6010535,111.674616 C81.5709811,111.606233 81.5479119,111.524667 81.5322579,111.43033 C81.5166038,111.335994 81.5079528,111.253192 81.5075409,111.182748 L82.1691321,109.492931 C82.2140346,109.432786 82.2774748,109.374701 82.3598648,109.318676 C82.4414308,109.262239 82.5172296,109.219396 82.5852013,109.189736 L82.865739,109.066975 L85.7671006,107.798994 L87.4416761,107.067371 C87.6031604,106.996104 87.7189182,107.04183 87.7901855,107.204138 L88.465783,108.750186 C88.4958553,108.818569 88.4975031,108.886129 88.4711384,108.953277 C88.4447736,109.020425 88.3978113,109.069447 88.3294277,109.099107 L86.2972799,109.98727 L83.9841824,110.998195 C83.9162107,111.028267 83.8676006,111.073994 83.8391761,111.137434 C83.8115755,111.200462 83.8119874,111.266374 83.8416478,111.334758 L84.3050912,112.395116 C84.3355755,112.463088 84.3837736,112.51005 84.4513333,112.537239 C84.5184811,112.563192 84.5860409,112.561544 84.6544245,112.531884 L85.805,112.028893 L87.3382767,111.359063 L87.5170629,111.280792 C87.5854465,111.25072 87.6657767,111.226003 87.7584654,111.205818 C87.8511541,111.185632 87.9331321,111.175333 88.0035755,111.174509 L89.6933931,111.836513 C89.7572453,111.889654 89.8161541,111.955154 89.8701195,112.033425 C89.9244969,112.110459 89.9669277,112.183786 89.9965881,112.25217 L90.1024591,112.494808 L90.7393333,113.951874 L90.840261,114.182154 C90.8695094,114.250126 90.8946384,114.330456 90.9144119,114.423145 C90.9350094,114.515833 90.9411887,114.599047 90.9329497,114.674022 L90.2713585,116.36384 C90.2231604,116.415333 90.160544,116.470123 90.0847453,116.529031 C90.0085346,116.587528 89.9368553,116.631607 89.8684717,116.661267 L86.0727673,118.320601 L85.2805881,118.666638 C85.2126164,118.696299 85.1446447,118.697947 85.0770849,118.671582 C85.0099371,118.645217 84.961327,118.597843 84.9312547,118.529459 L84.2445346,116.957871 C84.2148742,116.889487 84.2132264,116.821516 84.2391792,116.754368 C84.2663679,116.68722 84.3129182,116.63861 84.3813019,116.60895 L85.2756447,116.217597 L87.6274654,115.190607 L88.457956,114.826855 C88.5263396,114.797195 88.5745377,114.750645 88.6029623,114.687616 C88.6309748,114.624588 88.629739,114.559088 88.6000786,114.491116 L88.1477579,113.455475 C88.1180975,113.387091 88.0694874,113.340129 88.0023396,113.313764 C87.9351918,113.287399 87.8672201,113.289459 87.7988365,113.318708 L86.9807044,113.67628 L84.9366101,114.569799 C84.8686384,114.599871 84.7854245,114.625824 84.6886164,114.648069 C84.5918082,114.669903 84.5081824,114.681437 84.4369151,114.681849 L82.7470975,114.019434 C82.6918962,113.962585 82.6354591,113.895849 82.5765503,113.820462" id="Fill-20" sketch:type="MSShapeGroup"></path>
            <path d="M74.2255063,119.45511 C74.2086164,119.382607 74.219327,119.315871 74.2576384,119.254491 C74.2955377,119.192698 74.350739,119.153563 74.4232421,119.137085 L76.3524025,118.687648 C76.4249057,118.670758 76.4801069,118.633682 76.5196541,118.577657 C76.5592013,118.520396 76.5699119,118.45572 76.553434,118.383629 L74.9950283,111.686151 C74.9781384,111.613648 74.9863774,111.547324 75.0197453,111.487179 C75.0539371,111.426211 75.1066667,111.387899 75.1795818,111.371421 L77.0675472,110.931871 C77.1400503,110.914981 77.2071981,110.925692 77.2681667,110.963591 C77.3299591,111.002314 77.3686824,111.057516 77.3859843,111.130019 L78.9443899,117.827085 C78.9612799,117.899588 78.9979434,117.95273 79.0531447,117.987333 C79.1091698,118.022349 79.173434,118.031 79.2455252,118.01411 L81.1746855,117.565909 C81.2471887,117.549019 81.3147484,117.559318 81.375305,117.597629 C81.4370975,117.635528 81.4762327,117.691142 81.4931226,117.763645 L81.9104277,119.557274 C81.9503868,119.729057 81.8840629,119.834928 81.7118679,119.874887 L79.7831195,120.323912 L79.2805409,120.440906 L77.3921635,120.880456 L74.9608365,121.446475 C74.8887453,121.463365 74.8215975,121.452242 74.759805,121.413931 C74.6984245,121.376031 74.6592893,121.320418 74.6423994,121.247915 L74.2255063,119.45511" id="Fill-21" sketch:type="MSShapeGroup"></path>
            <path d="M68.889934,114.465164 L68.7062044,112.549186 C68.6889025,112.372871 68.7688208,112.276887 68.9443113,112.259997 L70.8607013,112.075855 C71.0361918,112.058965 71.1325881,112.138884 71.1498899,112.314786 L71.3336195,114.230764 C71.3505094,114.406667 71.2710031,114.502651 71.0951006,114.519541 L69.1795346,114.703682 C69.0036321,114.72016 68.9072358,114.641066 68.889934,114.465164" id="Fill-22" sketch:type="MSShapeGroup"></path>
            <path d="M54.0094874,118.750676 L54.4737547,115.492154 C54.4844654,115.418415 54.5182453,115.361978 54.5755063,115.323255 C54.6327673,115.284531 54.6978553,115.270113 54.7715943,115.280824 L56.0972484,115.469909 L58.8861478,115.867028 L59.4113836,115.941591 C59.5403239,115.960129 59.6334245,115.898336 59.6910975,115.756214 L59.8657642,114.527368 C59.8583491,114.385245 59.785434,114.304503 59.6474308,114.28473 L59.301805,114.235708 L56.1532736,113.787094 L55.0076415,113.623962 C54.9343145,113.613252 54.8782893,113.579472 54.8387421,113.522211 C54.7996069,113.465362 54.7860126,113.39945 54.7967233,113.326535 L55.0348302,111.655667 C55.044717,111.581516 55.0768491,111.522607 55.1299906,111.478528 C55.183544,111.434862 55.2469843,111.417972 55.3203113,111.42827 L57.5155912,111.74094 L59.7528899,112.059789 L60.7605189,112.203148 L60.7745252,112.205208 L62.1137736,112.39594 C62.2888522,112.421069 62.364239,112.521173 62.3386981,112.69584 L62.1479654,114.034676 L62.1459057,114.049094 L61.7838019,116.589588 C61.7776226,116.635726 61.7273648,116.727179 61.6326164,116.863947 L60.1813176,117.953142 C60.112934,117.971679 60.0313679,117.983214 59.9366195,117.988981 C59.842283,117.993925 59.7578333,117.991865 59.6840943,117.980742 L59.4768836,117.951494 L57.6268176,117.688258 L56.6599717,117.550667 C56.5862327,117.539544 56.5207327,117.556022 56.4630597,117.600101 C56.4053868,117.643355 56.371195,117.70144 56.3604843,117.774767 L56.2010597,118.894035 C56.1903491,118.967362 56.207239,119.030802 56.2517296,119.083943 C56.2953962,119.137085 56.354305,119.168805 56.428044,119.179928 L58.5269277,119.478591 L59.8249811,119.663145 L60.7638145,119.797852 C60.8375535,119.807739 60.8960503,119.841931 60.939305,119.900016 C60.9825597,119.957277 60.9994497,120.023189 60.988739,120.096928 L60.7469245,121.795396 C60.7358019,121.869135 60.702022,121.927632 60.6443491,121.970887 C60.5866761,122.014553 60.5207642,122.031443 60.4470252,122.020321 L59.8810063,121.939991 L56.2216572,121.418462 L55.5592421,121.324126 C55.4850912,121.313827 55.4043491,121.290346 55.3153679,121.254094 C55.2267987,121.217843 55.1477044,121.181179 55.077673,121.142868 L53.988478,119.691569 C53.9452233,119.535028 53.9246258,119.442752 53.9287453,119.415563 L53.9563459,119.221947 L53.9761195,119.083943 C53.980239,119.056343 53.9781792,119.037393 53.9703522,119.026682 L53.9736478,118.999082 L54.0094874,118.750676" id="Fill-23" sketch:type="MSShapeGroup"></path>
            <path d="M43.6917956,116.477538 C43.6864403,116.406682 43.6885,116.323881 43.6971509,116.22872 C43.7062138,116.133148 43.7222799,116.049934 43.746173,115.979491 L43.9439088,115.413472 L45.6267233,110.579654 L45.7181761,110.315594 C45.7428931,110.245151 45.7816164,110.170176 45.8343459,110.089846 C45.8870755,110.01034 45.9365094,109.943604 45.9842956,109.891286 L47.6180881,109.101579 C47.691827,109.087572 47.7775126,109.087984 47.8759686,109.102814 C47.9744245,109.117233 48.0588742,109.137006 48.1284937,109.160899 L48.4316887,109.26677 L51.4615786,110.321362 L51.606173,110.372031 C51.6762044,110.395925 51.7524151,110.432176 51.8343931,110.480374 C51.9155472,110.528572 51.9818711,110.581302 52.0308931,110.637327 L52.8206006,112.271119 C52.8346069,112.344858 52.8350189,112.428896 52.8218365,112.522409 C52.8082421,112.616333 52.7897044,112.698311 52.7653994,112.769167 L52.6414025,113.124267 L50.8535409,118.261692 L50.7938082,118.433063 C50.7695031,118.503094 50.7332516,118.579305 50.6850535,118.660871 C50.6368553,118.742437 50.5849497,118.807937 50.5276887,118.857371 L48.8938962,119.647079 C48.8238648,119.652022 48.7406509,119.650374 48.6450786,119.641723 C48.5495063,119.633072 48.4667044,119.616594 48.396261,119.592289 L47.9880189,119.450167 L45.4195126,118.555824 L44.9189937,118.381569 C44.8489623,118.356852 44.7715157,118.317717 44.6866541,118.263752 C44.6022044,118.210198 44.5338208,118.158704 44.4810912,118.110918 L43.6917956,116.477538 L43.6917956,116.477538 Z M50.3835063,112.441667 L47.8014057,111.543616 L46.1457799,116.297928 L48.7282925,117.196802 L50.3835063,112.441667 L50.3835063,112.441667 Z" id="Fill-24" sketch:type="MSShapeGroup"></path>
            <path d="M37.6419025,114.655072 L41.9488365,106.488582 C42.0316384,106.332041 42.1511038,106.295377 42.3072327,106.377355 L44.0098208,107.275406 C44.1659497,107.358208 44.2026132,107.477261 44.1206352,107.63339 L40.9061918,113.727774 C40.8888899,113.76073 40.8991887,113.785035 40.9391478,113.800277 C40.978283,113.815519 41.0326604,113.815519 41.1039277,113.801101 L41.9562516,113.650739 C42.026695,113.635909 42.075717,113.648267 42.1016698,113.688638 C42.1280346,113.728186 42.1235031,113.780915 42.0888994,113.846827 L41.1780786,115.574544 C41.1434748,115.640456 41.0886855,115.698129 41.0149465,115.748387 C40.9412075,115.799057 40.8691164,115.831601 40.7974371,115.846843 L39.9459371,115.996792 C39.8750818,116.011623 39.7918679,116.009975 39.6967075,115.991437 C39.6015472,115.972899 39.520805,115.946123 39.4548931,115.911107 L39.1710597,115.761569 L37.752717,115.013057 C37.5965881,114.931079 37.5595126,114.811613 37.6419025,114.655072" id="Fill-25" sketch:type="MSShapeGroup"></path>
            <path d="M29.6130031,107.53205 C29.6558459,107.442245 29.6999245,107.368094 29.7435912,107.307538 L29.851522,107.162119 L30.1328836,106.780654 L30.6630629,106.062214 C30.7071415,106.002069 30.7664623,105.94522 30.8414371,105.890431 C30.9164119,105.836053 30.9889151,105.799802 31.0593585,105.7825 L31.538456,105.650676 L31.7584371,105.587648 C31.8239371,105.577761 31.8935566,105.557164 31.9681195,105.525855 C32.0430943,105.494547 32.103239,105.449233 32.1469057,105.389088 C32.1839811,105.324 32.2058145,105.247377 32.2124057,105.160044 C32.2194088,105.072299 32.2206447,104.992792 32.2161132,104.919877 L32.2091101,104.741915 L32.1992233,104.543355 L32.1802736,104.287123 C32.1761541,104.214619 32.1872767,104.133053 32.2136415,104.042836 C32.2400063,103.952619 32.275022,103.877233 32.3191006,103.8175 L32.7244591,103.267547 L33.1306415,102.718006 L33.2958333,102.493082 C33.3407358,102.433349 33.3975849,102.371557 33.4676164,102.307704 C33.5380597,102.243852 33.6035597,102.193594 33.6645283,102.157755 L35.4589811,101.887516 C35.5405472,101.901934 35.6249969,101.929123 35.7106824,101.969082 C35.7963679,102.009453 35.869283,102.051472 35.9294277,102.095962 L36.0975031,102.220371 L39.7675629,104.927704 L40.2054654,105.250673 C40.3471761,105.35572 40.3661258,105.478893 40.2610786,105.621428 L39.3008239,106.923601 C39.2563333,106.982921 39.1998962,107.016289 39.1311006,107.024116 C39.062305,107.030296 38.9984528,107.01217 38.9383082,106.968091 L35.9417862,104.756745 L35.2122233,104.218739 C35.1524906,104.175072 35.0886384,104.159418 35.0206667,104.173013 C34.9531069,104.186195 34.8970818,104.22327 34.8525912,104.283003 L34.1407421,105.248201 C34.0962516,105.307934 34.0781258,105.372198 34.084717,105.441406 C34.092544,105.509789 34.1259119,105.566638 34.1852327,105.610717 L35.1953333,106.355522 L36.2503365,107.134107 L37.1928774,107.82989 C37.253434,107.873969 37.2880377,107.928346 37.2979245,107.993434 C37.3078113,108.058522 37.2900975,108.120726 37.2460189,108.180871 L36.3351981,109.415072 C36.2915314,109.475217 36.2367421,109.509821 36.1716541,109.519708 C36.106566,109.529594 36.0443616,109.512704 35.9846289,109.467802 L33.7621604,107.829066 L32.9761604,107.249041 C32.9164277,107.204962 32.8529874,107.189308 32.7846038,107.202903 C32.717456,107.216909 32.6614308,107.25316 32.6173522,107.313305 L31.8964403,108.289626 C31.8527736,108.34977 31.8338239,108.414035 31.840827,108.48283 C31.8478302,108.551214 31.8816101,108.607651 31.9413428,108.652142 L34.9267421,110.854836 L35.6674277,111.401494 C35.7275723,111.44516 35.7638239,111.501186 35.7778302,111.569157 C35.7914245,111.637129 35.7761824,111.700569 35.7312799,111.760714 L34.7792642,113.05094 C34.7351855,113.111085 34.6775126,113.146513 34.6058333,113.157223 C34.534566,113.167934 34.469066,113.151456 34.4085094,113.106965 L30.3907642,110.142575 L30.1324717,109.952255 C30.0731509,109.908176 30.0125943,109.848855 29.9512138,109.774704 C29.8910692,109.701377 29.8383396,109.630934 29.7950849,109.56461 L29.524022,107.770157 C29.5405,107.70095 29.5701604,107.621855 29.6130031,107.53205" id="Fill-26" sketch:type="MSShapeGroup"></path>
            <path d="M81.9697484,83.6978774 C81.9907579,83.6562704 82.0109434,83.6142516 82.0278333,83.5705849 C82.0447233,83.5260943 82.0574937,83.4807799 82.0698522,83.4346415 C82.0817987,83.3909748 82.0937453,83.3481321 82.1011604,83.3032296 C82.1102233,83.2517358 82.1135189,83.1994182 82.1172264,83.1466887 C82.1188742,83.1166164 82.1258774,83.0881918 82.1258774,83.0577075 L82.1258774,79.2212201 C82.1258774,78.4249214 81.4803522,77.7793962 80.6840535,77.7793962 C79.8881667,77.7793962 79.2422296,78.4249214 79.2422296,79.2212201 L79.2422296,81.9528585 L66.8338931,85.2954182 L66.8338931,79.6331698 L63.9502453,79.6331698 L63.9502453,85.2954182 L51.5423208,81.9528585 L51.5423208,79.2212201 C51.5423208,78.4249214 50.8967956,77.7793962 50.1004969,77.7793962 C49.3041981,77.7793962 48.658673,78.4249214 48.658673,79.2212201 L48.658673,83.0577075 C48.658673,83.0873679 48.6656761,83.1149686 48.6673239,83.144217 C48.6706195,83.1981824 48.674327,83.2517358 48.6833899,83.3044654 C48.691217,83.3481321 48.7027516,83.389739 48.7142862,83.4321698 C48.7270566,83.479544 48.739827,83.5260943 48.7575409,83.5714088 C48.7740189,83.6146635 48.7937925,83.6550346 48.813978,83.6962296 C48.8349874,83.7382484 48.8559969,83.7794434 48.8811258,83.8194025 C48.9050189,83.8577138 48.9313836,83.8931415 48.9585723,83.9289811 C48.9878208,83.9672925 49.0170692,84.0043679 49.0504371,84.0397956 C49.0800975,84.0719277 49.1122296,84.1007642 49.1447736,84.1300126 C49.1814371,84.1621447 49.2176887,84.1938648 49.2576478,84.2227013 C49.2947233,84.2498899 49.3338585,84.2729591 49.3734057,84.2960283 C49.4137767,84.3199214 49.4533239,84.3429906 49.4961667,84.3627642 C49.542717,84.3841855 49.5909151,84.4006635 49.6395252,84.4175535 C49.6687736,84.4274403 49.6951384,84.4418585 49.7256226,84.4500975 L65.017195,88.5695943 C65.0460314,88.5774214 65.0752799,88.5811289 65.1041164,88.5868962 C65.1292453,88.5922516 65.1535503,88.5980189 65.1790912,88.6017264 C65.2482987,88.6124371 65.3170943,88.6186164 65.385478,88.6190283 C65.3871258,88.6190283 65.3891855,88.6194403 65.3912453,88.6194403 L65.3920692,88.6194403 L65.3924811,88.6194403 C65.3949528,88.6194403 65.3970126,88.6190283 65.3990723,88.6190283 C65.467456,88.6186164 65.5362516,88.6124371 65.6050472,88.6017264 C65.6305881,88.5980189 65.655305,88.5922516 65.680022,88.5868962 C65.7092704,88.5811289 65.7381069,88.5774214 65.7669434,88.5695943 L81.0593396,84.4500975 C81.0894119,84.4418585 81.1157767,84.4274403 81.1450252,84.4175535 C81.1940472,84.4006635 81.2422453,84.3841855 81.2883836,84.3627642 C81.3312264,84.3429906 81.3707736,84.3199214 81.4107327,84.2964403 C81.4506918,84.2729591 81.490239,84.2498899 81.5273145,84.2227013 C81.5668616,84.1938648 81.6031132,84.1625566 81.6393648,84.1304245 C81.6723208,84.1007642 81.7048648,84.0715157 81.7349371,84.0393836 C81.7674811,84.0043679 81.7963176,83.9677044 81.8251541,83.929805 C81.8527547,83.8935535 81.8799434,83.8573019 81.9042484,83.8185786 C81.9285535,83.7794434 81.9491509,83.7390723 81.9697484,83.6978774" id="Fill-27" sketch:type="MSShapeGroup"></path>
            <path d="M56.2797421,55.9538899 L63.9502453,55.9538899 L63.9502453,58.0980881 L66.8338931,58.0980881 L66.8338931,55.9538899 L74.5048082,55.9538899 C75.3011069,55.9538899 75.9466321,55.3083648 75.9466321,54.512066 C75.9466321,53.7157673 75.3011069,53.0702421 74.5048082,53.0702421 L66.8338931,53.0702421 L66.8338931,50.2636289 C68.5162956,49.6675377 69.7266038,48.0650535 69.7266038,46.1812075 C69.7266038,43.7910755 67.7822013,41.846673 65.3920692,41.846673 C63.0019371,41.846673 61.0579465,43.7910755 61.0579465,46.1812075 C61.0579465,48.0650535 62.2682547,49.6675377 63.9502453,50.2636289 L63.9502453,53.0702421 L56.2797421,53.0702421 C55.4834434,53.0702421 54.8379182,53.7157673 54.8379182,54.512066 C54.8379182,55.3083648 55.4834434,55.9538899 56.2797421,55.9538899 L56.2797421,55.9538899 Z M65.3920692,44.7303208 C66.1920755,44.7303208 66.842956,45.3812013 66.842956,46.1812075 C66.842956,46.9808019 66.1920755,47.6316824 65.3920692,47.6316824 C64.5924748,47.6316824 63.9415943,46.9808019 63.9415943,46.1812075 C63.9415943,45.3812013 64.5924748,44.7303208 65.3920692,44.7303208 L65.3920692,44.7303208 Z" id="Fill-28" sketch:type="MSShapeGroup"></path>
            <path d="M56.2797421,77.7793962 L70.747827,77.7793962 C73.6145849,77.7793962 75.9466321,75.4469371 75.9466321,72.5801792 C75.9466321,69.7389623 73.654544,67.4258648 70.8223899,67.3859057 C70.8096195,67.3854937 70.797673,67.3817862 70.7849025,67.3817862 L66.8338931,67.3817862 L66.8338931,64.6052453 L63.9502453,64.6052453 L63.9502453,67.3817862 L60.0367233,67.3817862 C58.7605031,67.3817862 57.721566,66.343261 57.721566,65.0666289 C57.721566,63.7904088 58.7605031,62.7514717 60.0367233,62.7514717 L73.0629843,62.7514717 L73.0629843,63.1881384 C73.0629843,63.9840252 73.7089214,64.6299623 74.5048082,64.6299623 C75.3011069,64.6299623 75.9466321,63.9840252 75.9466321,63.1881384 L75.9466321,61.3096478 C75.9466321,60.5133491 75.3011069,59.8678239 74.5048082,59.8678239 L60.0367233,59.8678239 C57.1699654,59.8678239 54.8379182,62.1998711 54.8379182,65.0666289 C54.8379182,67.9333868 57.1699654,70.265434 60.0367233,70.265434 L63.9502453,70.265434 L63.9502453,73.0419748 L66.8338931,73.0419748 L66.8338931,70.265434 L70.747827,70.265434 C72.0244591,70.265434 73.0629843,71.3039591 73.0629843,72.5801792 C73.0629843,73.8568113 72.0244591,74.8957484 70.747827,74.8957484 L57.721566,74.8957484 L57.721566,74.4590818 C57.721566,73.662783 57.0760409,73.0172579 56.2797421,73.0172579 C55.4834434,73.0172579 54.8379182,73.662783 54.8379182,74.4590818 L54.8379182,76.3375723 C54.8379182,77.1334591 55.4834434,77.7793962 56.2797421,77.7793962" id="Fill-29" sketch:type="MSShapeGroup"></path>
        </g>
    </g>
</svg>