<?xml version="1.0" encoding="UTF-8" standalone="no"?>
<svg width="68px" height="68px" viewBox="0 0 68 68" version="1.1" xmlns="http://www.w3.org/2000/svg" xmlns:xlink="http://www.w3.org/1999/xlink" xmlns:sketch="http://www.bohemiancoding.com/sketch/ns">
    <!-- Generator: Sketch 3.0.3 (7892) - http://www.bohemiancoding.com/sketch -->
    <title>Slice 1</title>
    <desc>Created with Sketch.</desc>
    <defs></defs>
    <g id="Page-1" stroke="none" stroke-width="1" fill="none" fill-rule="evenodd" sketch:type="MSPage">
        <g id="Imported-Layers-4" sketch:type="MSLayerGroup">
            <path d="M31.188,4.274 C31.188,2.723 32.446,1.465 33.997,1.465 C35.548,1.465 36.806,2.723 36.806,4.274 C36.806,5.826 35.548,7.083 33.997,7.083 C32.446,7.083 31.188,5.826 31.188,4.274" id="Fill-1" fill="#BEC3CC" sketch:type="MSShapeGroup"></path>
            <path d="M31.188,4.274 L32.188,4.274 C32.19,3.276 32.999,2.467 33.997,2.465 C34.995,2.467 35.804,3.275 35.806,4.274 C35.804,5.273 34.996,6.081 33.997,6.083 C32.998,6.081 32.19,5.273 32.188,4.274 L30.188,4.274 C30.189,6.379 31.893,8.082 33.997,8.083 C36.101,8.082 37.805,6.379 37.806,4.274 C37.805,2.17 36.101,0.466 33.997,0.465 C31.893,0.466 30.189,2.17 30.188,4.274 L31.188,4.274" id="Fill-2" fill="#BEC3CC" sketch:type="MSShapeGroup"></path>
            <path d="M31.18,64.163 C31.18,62.612 32.437,61.354 33.989,61.354 C35.54,61.354 36.798,62.612 36.798,64.163 C36.798,65.714 35.54,66.972 33.989,66.972 C32.437,66.972 31.18,65.714 31.18,64.163" id="Fill-3" fill="#BEC3CC" sketch:type="MSShapeGroup"></path>
            <path d="M31.18,64.163 L32.18,64.163 C32.182,63.164 32.99,62.356 33.989,62.354 C34.987,62.356 35.796,63.164 35.798,64.163 C35.796,65.162 34.987,65.97 33.989,65.972 C32.99,65.97 32.182,65.162 32.18,64.163 L30.18,64.163 C30.18,66.267 31.885,67.971 33.989,67.972 C36.093,67.971 37.797,66.267 37.798,64.163 C37.797,62.059 36.092,60.355 33.989,60.354 C31.885,60.355 30.18,62.059 30.18,64.163 L31.18,64.163" id="Fill-4" fill="#BEC3CC" sketch:type="MSShapeGroup"></path>
            <path d="M53.185,11.059 C54.281,9.962 56.06,9.962 57.157,11.059 C58.254,12.156 58.254,13.934 57.157,15.031 C56.06,16.128 54.281,16.128 53.185,15.031 C52.088,13.934 52.088,12.156 53.185,11.059" id="Fill-5" fill="#BEC3CC" sketch:type="MSShapeGroup"></path>
            <path d="M53.185,11.059 L53.892,11.766 C54.248,11.411 54.704,11.237 55.171,11.236 C55.637,11.237 56.094,11.411 56.45,11.766 C56.805,12.122 56.979,12.579 56.98,13.045 C56.979,13.511 56.805,13.968 56.45,14.324 C56.094,14.679 55.637,14.853 55.171,14.854 C54.704,14.853 54.248,14.679 53.892,14.324 L53.891,14.324 C53.537,13.968 53.363,13.511 53.362,13.045 C53.363,12.579 53.537,12.122 53.892,11.766 L52.477,10.352 C51.736,11.093 51.361,12.074 51.362,13.045 C51.361,14.017 51.736,14.997 52.478,15.738 L52.477,15.738 C53.218,16.48 54.199,16.855 55.171,16.854 C56.142,16.855 57.123,16.48 57.864,15.738 C58.606,14.997 58.981,14.017 58.98,13.045 C58.981,12.074 58.606,11.093 57.864,10.352 C57.123,9.61 56.142,9.235 55.171,9.236 C54.199,9.235 53.218,9.61 52.477,10.352 L53.185,11.059" id="Fill-6" fill="#BEC3CC" sketch:type="MSShapeGroup"></path>
            <path d="M10.83,53.4 C11.928,52.303 13.706,52.303 14.804,53.4 C15.9,54.497 15.9,56.276 14.804,57.372 C13.706,58.47 11.928,58.47 10.83,57.372 C9.734,56.276 9.734,54.497 10.83,53.4" id="Fill-7" fill="#BEC3CC" sketch:type="MSShapeGroup"></path>
            <path d="M10.83,53.4 L11.537,54.107 C11.894,53.752 12.351,53.578 12.817,53.577 C13.283,53.578 13.74,53.752 14.096,54.107 C14.451,54.463 14.625,54.92 14.626,55.386 C14.625,55.853 14.451,56.31 14.096,56.665 C13.74,57.021 13.283,57.194 12.817,57.195 C12.351,57.194 11.894,57.021 11.538,56.665 C11.183,56.31 11.009,55.853 11.008,55.386 C11.009,54.92 11.183,54.463 11.538,54.107 L11.537,54.107 L10.83,53.4 L10.123,52.693 C9.382,53.434 9.007,54.415 9.008,55.386 C9.007,56.358 9.382,57.338 10.123,58.079 C10.865,58.821 11.845,59.196 12.817,59.195 C13.789,59.196 14.769,58.821 15.511,58.079 C16.253,57.338 16.627,56.358 16.626,55.386 C16.627,54.415 16.253,53.434 15.511,52.693 C14.77,51.951 13.789,51.576 12.817,51.577 C11.846,51.576 10.865,51.951 10.123,52.693 L10.83,53.4" id="Fill-8" fill="#BEC3CC" sketch:type="MSShapeGroup"></path>
            <path d="M10.837,15.025 C9.74,13.928 9.74,12.149 10.837,11.052 C11.934,9.956 13.712,9.956 14.809,11.052 C15.906,12.15 15.906,13.928 14.809,15.025 C13.712,16.122 11.934,16.122 10.837,15.025" id="Fill-9" fill="#BEC3CC" sketch:type="MSShapeGroup"></path>
            <path d="M10.837,15.025 L11.544,14.317 C11.189,13.962 11.015,13.505 11.014,13.039 C11.015,12.572 11.189,12.115 11.544,11.759 C11.9,11.404 12.357,11.231 12.823,11.23 C13.289,11.231 13.746,11.404 14.102,11.759 C14.457,12.115 14.631,12.573 14.632,13.039 C14.631,13.505 14.457,13.962 14.102,14.317 L14.101,14.318 C13.746,14.673 13.289,14.847 12.823,14.848 C12.357,14.847 11.9,14.673 11.544,14.318 L11.544,14.317 L10.837,15.025 L10.13,15.732 C10.871,16.474 11.852,16.849 12.823,16.848 C13.795,16.849 14.775,16.474 15.516,15.731 L15.516,15.732 C16.258,14.991 16.633,14.01 16.632,13.039 C16.633,12.067 16.258,11.087 15.516,10.345 C14.775,9.603 13.794,9.229 12.823,9.23 C11.852,9.229 10.871,9.603 10.13,10.345 C9.388,11.086 9.013,12.067 9.014,13.039 C9.013,14.01 9.388,14.991 10.13,15.732 L10.837,15.025" id="Fill-10" fill="#BEC3CC" sketch:type="MSShapeGroup"></path>
            <path d="M53.178,57.379 C52.081,56.281 52.081,54.503 53.178,53.407 C54.275,52.309 56.054,52.309 57.151,53.407 C58.248,54.503 58.248,56.282 57.151,57.379 C56.054,58.476 54.275,58.476 53.178,57.379" id="Fill-11" fill="#BEC3CC" sketch:type="MSShapeGroup"></path>
            <path d="M53.178,57.379 L53.885,56.672 C53.53,56.315 53.356,55.858 53.355,55.392 C53.356,54.926 53.53,54.469 53.885,54.114 C54.241,53.758 54.698,53.585 55.164,53.584 C55.631,53.585 56.088,53.758 56.444,54.114 C56.799,54.469 56.973,54.926 56.974,55.392 C56.973,55.859 56.799,56.316 56.444,56.672 C56.088,57.027 55.631,57.2 55.164,57.201 C54.698,57.2 54.241,57.027 53.885,56.672 L52.471,58.086 C53.212,58.828 54.193,59.202 55.164,59.201 C56.136,59.202 57.117,58.828 57.858,58.086 C58.6,57.345 58.975,56.364 58.974,55.392 C58.975,54.421 58.6,53.44 57.858,52.699 C57.117,51.957 56.136,51.582 55.164,51.584 C54.193,51.582 53.212,51.958 52.471,52.7 L52.471,52.699 C51.729,53.44 51.354,54.421 51.355,55.392 C51.354,56.364 51.729,57.344 52.471,58.086 L53.178,57.379" id="Fill-12" fill="#BEC3CC" sketch:type="MSShapeGroup"></path>
            <path d="M63.944,31.411 C65.496,31.411 66.753,32.669 66.753,34.22 C66.753,35.772 65.495,37.029 63.945,37.029 C62.393,37.028 61.135,35.771 61.136,34.22 C61.135,32.669 62.393,31.411 63.944,31.411" id="Fill-13" fill="#BEC3CC" sketch:type="MSShapeGroup"></path>
            <path d="M63.944,31.411 L63.963,32.411 L63.945,31.441 L63.945,32.411 L63.963,32.411 L63.945,31.441 L63.945,32.411 C64.943,32.413 65.751,33.221 65.753,34.22 C65.749,34.308 65.777,34.476 65.817,34.571 L66.753,34.22 L65.753,34.22 C65.751,35.219 64.943,36.027 63.945,36.029 L63.945,36.983 L63.949,36.029 L63.945,36.029 L63.945,36.983 L63.949,36.029 L63.882,36.031 L63.945,37.029 L63.945,36.029 C62.945,36.027 62.137,35.219 62.136,34.22 L61.138,34.22 L62.13,34.324 L62.136,34.22 L61.138,34.22 L62.13,34.324 L62.138,34.247 L62.134,34.17 L61.145,34.219 L62.135,34.219 L62.134,34.17 L61.145,34.219 L62.135,34.219 C62.137,33.221 62.945,32.413 63.944,32.411 L63.963,32.411 L63.944,31.411 L63.944,30.411 C61.84,30.412 60.136,32.116 60.136,34.219 L60.137,34.27 L61.136,34.22 L60.141,34.115 L60.136,34.22 C60.136,36.324 61.84,38.028 63.945,38.029 L63.976,38.029 L64.007,38.027 L63.945,37.034 L63.95,38.029 L64.007,38.027 L63.945,37.034 L63.95,38.029 L63.945,37.047 L63.942,38.029 L63.95,38.029 L63.945,37.047 L63.942,38.029 L63.945,38.029 C66.049,38.028 67.752,36.324 67.753,34.22 L67.753,34.039 L67.689,33.869 L66.754,34.22 L67.753,34.22 C67.757,34.132 67.729,33.965 67.689,33.869 L66.754,34.22 L67.753,34.22 C67.753,32.116 66.049,30.412 63.945,30.411 L63.925,30.411 L63.944,31.411 L63.944,30.411 L63.944,31.411" id="Fill-14" fill="#BEC3CC" sketch:type="MSShapeGroup"></path>
            <path d="M4.056,31.402 C5.608,31.402 6.865,32.66 6.865,34.211 C6.865,35.763 5.607,37.02 4.056,37.02 C2.504,37.02 1.247,35.763 1.247,34.211 C1.247,32.66 2.505,31.402 4.056,31.402" id="Fill-15" fill="#BEC3CC" sketch:type="MSShapeGroup"></path>
            <path d="M4.056,31.402 L4.056,32.402 C5.055,32.404 5.863,33.212 5.865,34.211 C5.863,35.21 5.055,36.019 4.056,36.02 C3.057,36.019 2.249,35.21 2.247,34.211 C2.248,33.213 3.058,32.404 4.056,32.402 L4.055,30.402 C1.952,30.403 0.248,32.107 0.247,34.211 C0.247,36.315 1.952,38.02 4.056,38.02 C6.16,38.02 7.864,36.315 7.865,34.211 C7.865,32.107 6.16,30.403 4.056,30.402 L4.056,31.402" id="Fill-16" fill="#BEC3CC" sketch:type="MSShapeGroup"></path>
            <path d="M31.196,4.271 C31.195,2.72 32.453,1.462 34.005,1.462 C35.556,1.463 36.813,2.72 36.813,4.271 C36.813,5.823 35.555,7.08 34.004,7.08 C32.453,7.08 31.195,5.823 31.196,4.271" id="Fill-17" fill="#BEC3CC" sketch:type="MSShapeGroup"></path>
            <path d="M31.196,4.271 L32.195,4.26 L31.287,4.27 L32.196,4.27 L32.195,4.26 L31.287,4.27 L32.196,4.27 C32.197,3.272 33.006,2.464 34.005,2.462 L34.004,2.462 C35.003,2.464 35.812,3.273 35.813,4.271 L35.813,4.27 C35.811,5.27 35.003,6.078 34.005,6.08 L33.999,6.08 L34.004,6.08 L34.003,6.08 C33.005,6.078 32.197,5.271 32.196,4.272 L31.211,4.272 L32.195,4.309 L32.196,4.272 L31.211,4.272 L32.195,4.309 L32.196,4.285 L32.195,4.26 L31.196,4.271 L30.196,4.233 L30.196,4.272 C30.196,6.375 31.899,8.079 34.003,8.08 L34.01,8.08 L34.005,7.269 L34.005,8.08 L34.01,8.08 L34.005,7.269 L34.005,8.08 C36.109,8.079 37.812,6.375 37.813,4.271 C37.812,2.167 36.108,0.463 34.005,0.462 C31.901,0.463 30.196,2.166 30.196,4.27 L30.196,4.282 L31.196,4.271 L30.196,4.233 L31.196,4.271" id="Fill-18" fill="#BEC3CC" sketch:type="MSShapeGroup"></path>
            <path d="M31.186,64.16 C31.187,62.608 32.444,61.35 33.995,61.351 C35.547,61.351 36.805,62.608 36.805,64.16 C36.805,65.711 35.547,66.969 33.996,66.969 C32.444,66.969 31.186,65.711 31.186,64.16" id="Fill-19" fill="#BEC3CC" sketch:type="MSShapeGroup"></path>
            <path d="M31.186,64.16 L32.187,64.16 C32.188,63.16 32.996,62.352 33.994,62.351 L33.999,62.351 L33.995,61.363 L33.932,62.349 L33.999,62.351 L33.995,61.363 L33.932,62.349 L33.989,62.352 L34.047,62.35 L33.996,61.359 L33.996,62.351 L34.047,62.35 L33.996,61.359 L33.996,62.351 C34.994,62.353 35.803,63.161 35.805,64.16 L35.805,64.161 C35.803,65.159 34.995,65.967 33.996,65.969 C32.997,65.967 32.188,65.158 32.187,64.16 L30.187,64.16 C30.187,66.264 31.891,67.968 33.995,67.969 L33.996,67.969 C36.099,67.968 37.804,66.265 37.805,64.161 L37.805,64.16 C37.804,62.056 36.1,60.352 33.996,60.351 L33.944,60.352 L33.995,61.351 L34.058,60.353 L34,60.351 L33.991,60.351 L33.994,61.286 L33.994,60.351 L33.991,60.351 L33.994,61.286 L33.994,60.351 C31.891,60.352 30.187,62.056 30.187,64.16 L31.186,64.16" id="Fill-20" fill="#BEC3CC" sketch:type="MSShapeGroup"></path>
            <path d="M12.772,13.046 C24.468,1.35 43.43,1.351 55.125,13.046 C66.821,24.742 66.821,43.704 55.125,55.4 C43.43,67.095 24.467,67.095 12.772,55.4 C1.076,43.704 1.076,24.742 12.772,13.046" id="Fill-21" fill="#FFFFFF" sketch:type="MSShapeGroup"></path>
            <path d="M12.772,13.046 L13.479,13.753 C19.153,8.08 26.587,5.276 34.028,5.275 C41.411,5.275 48.782,8.117 54.418,13.753 C60.056,19.392 62.896,26.765 62.897,34.15 C62.896,41.589 60.09,49.02 54.418,54.693 C48.763,60.347 41.36,63.17 33.949,63.172 C26.537,63.17 19.134,60.347 13.479,54.693 C7.824,49.038 5.001,41.635 5,34.223 C5.001,26.811 7.824,19.409 13.479,13.753 L12.065,12.339 C6.023,18.38 2.999,26.306 3,34.223 C2.999,42.14 6.023,50.066 12.065,56.107 C18.105,62.148 26.031,65.173 33.949,65.172 C41.866,65.173 49.792,62.148 55.832,56.107 C61.894,50.046 64.898,42.089 64.897,34.15 C64.898,26.254 61.854,18.359 55.832,12.339 C49.814,6.32 41.922,3.273 34.028,3.274 C26.088,3.273 18.127,6.276 12.065,12.339 L12.772,13.046" id="Fill-22" fill="#BEC3CC" sketch:type="MSShapeGroup"></path>
            <path d="M33.997,9.038 C20.088,9.038 8.812,20.314 8.812,34.223 C8.812,48.132 20.088,59.407 33.997,59.407 C47.906,59.407 59.182,48.132 59.182,34.223 C59.182,20.314 47.906,9.038 33.997,9.038" id="Fill-23" fill="#BEC3CC" sketch:type="MSShapeGroup"></path>
        </g>
        <path d="M48.9013158,29.793985 L42.3157895,29.793985 C41.4763882,29.793985 40.7960526,29.1053188 40.7960526,28.2556391 C40.7960526,27.4059594 41.4763882,26.7172932 42.3157895,26.7172932 L44.9332829,26.7172932 C42.553375,23.3098571 38.6486645,21.0766917 34.2105263,21.0766917 C26.9365592,21.0766917 21.0394737,27.0459865 21.0394737,34.4090226 C21.0394737,35.2587023 20.3591382,35.9473684 19.5197368,35.9473684 C18.6803355,35.9473684 18,35.2587023 18,34.4090226 C18,25.3466271 25.2577566,18 34.2105263,18 C39.6476382,18 44.4454474,20.7172316 47.3815789,24.8774316 L47.3815789,22.1022556 C47.3815789,21.2525759 48.0619145,20.5639098 48.9013158,20.5639098 C49.7407171,20.5639098 50.4210526,21.2525759 50.4210526,22.1022556 L50.4210526,28.2556391 C50.4210526,29.1053188 49.7407171,29.793985 48.9013158,29.793985 L48.9013158,29.793985 Z M19.5197368,38.6270677 L26.1052632,38.6270677 C26.9446645,38.6270677 27.625,39.3157338 27.625,40.1654135 C27.625,41.0150932 26.9446645,41.7037594 26.1052632,41.7037594 L23.4675066,41.7037594 C25.8489342,45.1152977 29.7688421,47.3443609 34.2105263,47.3443609 C41.4844934,47.3443609 47.3815789,41.3750662 47.3815789,34.0120301 C47.3815789,33.1623504 48.0619145,32.4736842 48.9013158,32.4736842 C49.7407171,32.4736842 50.4210526,33.1623504 50.4210526,34.0120301 C50.4210526,43.0744256 43.1632961,50.4210526 34.2105263,50.4210526 C28.7668289,50.4210526 23.9720592,47.6925398 21.0394737,43.5220842 L21.0394737,46.318797 C21.0394737,47.1684767 20.3591382,47.8571429 19.5197368,47.8571429 C18.6803355,47.8571429 18,47.1684767 18,46.318797 L18,40.1654135 C18,39.3157338 18.6803355,38.6270677 19.5197368,38.6270677 L19.5197368,38.6270677 Z" id="Imported-Layers" fill="#FFFFFF" sketch:type="MSShapeGroup"></path>
    </g>
</svg>