<?xml version="1.0" encoding="UTF-8" standalone="no"?>
<svg width="36px" height="65px" viewBox="0 0 36 65" version="1.1" xmlns="http://www.w3.org/2000/svg" xmlns:xlink="http://www.w3.org/1999/xlink" xmlns:sketch="http://www.bohemiancoding.com/sketch/ns">
    <!-- Generator: Sketch 3.0.3 (7892) - http://www.bohemiancoding.com/sketch -->
    <title>Slice 1</title>
    <desc>Created with Sketch.</desc>
    <defs></defs>
    <g id="Page-1" stroke="none" stroke-width="1" fill="none" fill-rule="evenodd" sketch:type="MSPage">
        <g id="Imported-Layers" sketch:type="MSLayerGroup">
            <path d="M2.287,-0.039 L33.712,-0.039 L33.712,23.436 L2.287,23.436 L2.287,-0.039 Z" id="Fill-1" fill="#DEE1E5" sketch:type="MSShapeGroup"></path>
            <path d="M0.023,23.436 L35.978,23.436 L35.978,32 L0.023,32 L0.023,23.436 Z" id="Fill-2" fill="#BEC3CC" sketch:type="MSShapeGroup"></path>
            <path d="M13.283,32 L22.718,32 L22.718,60.091 L13.283,60.091 L13.283,32 Z" id="Fill-3" fill="#BEC3CC" sketch:type="MSShapeGroup"></path>
            <path d="M22.718,44.692 C22.718,38.757 29.286,32 35.977,32 L28.309,29.11 L18.684,29.11 C18.684,29.11 18,43.5 18,43.867 C18,44.234 22.718,45.367 22.718,44.692" id="Fill-4" fill="#BEC3CC" sketch:type="MSShapeGroup"></path>
            <path d="M13.283,44.692 C13.283,38.757 6.714,32 0.023,32 L7.691,29.11 L17.316,29.11 C17.316,29.11 18,43.5 18,43.867 C18,44.234 13.283,45.367 13.283,44.692" id="Fill-5" fill="#BEC3CC" sketch:type="MSShapeGroup"></path>
            <path d="M13.283,60.091 C13.283,57.486 15.395,55.374 18,55.374 C20.605,55.374 22.718,57.486 22.718,60.091 C22.718,62.697 20.605,64.809 18,64.809 C15.395,64.809 13.283,62.697 13.283,60.091" id="Fill-6" fill="#BEC3CC" sketch:type="MSShapeGroup"></path>
        </g>
    </g>
</svg>