<?xml version="1.0" encoding="UTF-8" standalone="no"?>
<svg width="65px" height="65px" viewBox="0 0 65 65" version="1.1" xmlns="http://www.w3.org/2000/svg" xmlns:xlink="http://www.w3.org/1999/xlink" xmlns:sketch="http://www.bohemiancoding.com/sketch/ns">
    <!-- Generator: Sketch 3.0.3 (7892) - http://www.bohemiancoding.com/sketch -->
    <title>Slice 1</title>
    <desc>Created with Sketch.</desc>
    <defs></defs>
    <g id="Page-1" stroke="none" stroke-width="1" fill="none" fill-rule="evenodd" sketch:type="MSPage">
        <g id="Imported-Layers-2" sketch:type="MSLayerGroup">
            <path d="M27.17,15.574 C26.808,21.675 28.62,27.408 31.929,32.013 C25.341,29.35 20.882,22.712 21.326,15.227 C21.77,7.741 26.983,1.677 33.84,-0.187 C30.01,3.994 27.532,9.472 27.17,15.574" id="Fill-1" fill="#BEC3CC" sketch:type="MSShapeGroup"></path>
            <path id="Fill-2" fill="#BEC3CC" sketch:type="MSShapeGroup"></path>
            <path d="M16.803,24.025 C20.862,28.595 26.197,31.367 31.793,32.283 C25.252,35.059 17.405,33.518 12.426,27.911 C7.447,22.304 6.845,14.33 10.375,8.163 C10.623,13.828 12.745,19.454 16.803,24.025" id="Fill-3" fill="#BEC3CC" sketch:type="MSShapeGroup"></path>
            <path d="M15.449,37.33 C21.55,37.693 27.283,35.88 31.888,32.571 C29.225,39.159 22.587,43.618 15.102,43.174 C7.616,42.73 1.552,37.517 -0.312,30.66 C3.869,34.491 9.347,36.968 15.449,37.33" id="Fill-4" fill="#BEC3CC" sketch:type="MSShapeGroup"></path>
            <path d="M23.899,47.697 C28.47,43.639 31.242,38.303 32.158,32.708 C34.934,39.249 33.393,47.096 27.786,52.075 C22.179,57.053 14.205,57.655 8.038,54.125 C13.703,53.877 19.329,51.756 23.899,47.697" id="Fill-5" fill="#BEC3CC" sketch:type="MSShapeGroup"></path>
            <path d="M37.205,49.052 C37.568,42.95 35.755,37.217 32.446,32.613 C39.034,35.275 43.493,41.913 43.049,49.399 C42.605,56.884 37.392,62.948 30.535,64.813 C34.366,60.632 36.843,55.153 37.205,49.052" id="Fill-6" fill="#BEC3CC" sketch:type="MSShapeGroup"></path>
            <path d="M47.572,40.601 C43.514,36.03 38.178,33.258 32.583,32.342 C39.124,29.566 46.971,31.107 51.95,36.714 C56.928,42.321 57.53,50.295 54,56.462 C53.752,50.797 51.631,45.172 47.572,40.601" id="Fill-7" fill="#BEC3CC" sketch:type="MSShapeGroup"></path>
            <path d="M48.927,27.295 C42.825,26.933 37.093,28.745 32.488,32.054 C35.15,25.466 41.788,21.007 49.274,21.451 C56.759,21.895 62.823,27.108 64.688,33.965 C60.507,30.135 55.028,27.657 48.927,27.295" id="Fill-8" fill="#BEC3CC" sketch:type="MSShapeGroup"></path>
            <path d="M40.476,16.928 C35.905,20.987 33.133,26.322 32.217,31.918 C29.441,25.377 30.982,17.53 36.589,12.551 C42.196,7.572 50.17,6.97 56.337,10.5 C50.672,10.748 45.047,12.87 40.476,16.928" id="Fill-9" fill="#BEC3CC" sketch:type="MSShapeGroup"></path>
            <path d="M23.008,17.443 C24.238,23.43 27.472,28.498 31.861,32.09 C24.808,31.223 18.783,25.965 17.274,18.62 C15.766,11.275 19.232,4.068 25.372,0.492 C22.754,5.522 21.779,11.455 23.008,17.443" id="Fill-10" fill="#BEC3CC" sketch:type="MSShapeGroup"></path>
            <path id="Fill-11" fill="#BEC3CC" sketch:type="MSShapeGroup"></path>
            <path d="M15.182,28.289 C20.285,31.653 26.156,32.95 31.799,32.386 C26.199,36.761 18.221,37.304 11.96,33.176 C5.7,29.049 3.054,21.502 4.868,14.632 C6.574,20.039 10.079,24.924 15.182,28.289" id="Fill-12" fill="#BEC3CC" sketch:type="MSShapeGroup"></path>
            <path d="M17.318,41.492 C23.305,40.263 28.373,37.028 31.965,32.64 C31.098,39.693 25.84,45.718 18.495,47.226 C11.15,48.735 3.943,45.269 0.367,39.128 C5.397,41.746 11.33,42.721 17.318,41.492" id="Fill-13" fill="#BEC3CC" sketch:type="MSShapeGroup"></path>
            <path d="M28.164,49.318 C31.528,44.215 32.825,38.344 32.261,32.702 C36.636,38.301 37.178,46.28 33.051,52.54 C28.924,58.801 21.377,61.446 14.507,59.632 C19.914,57.927 24.799,54.421 28.164,49.318" id="Fill-14" fill="#BEC3CC" sketch:type="MSShapeGroup"></path>
            <path d="M41.367,47.183 C40.137,41.195 36.903,36.127 32.515,32.536 C39.568,33.402 45.593,38.66 47.101,46.005 C48.61,53.351 45.144,60.558 39.003,64.133 C41.621,59.103 42.596,53.17 41.367,47.183" id="Fill-15" fill="#BEC3CC" sketch:type="MSShapeGroup"></path>
            <path d="M49.193,36.337 C44.09,32.972 38.219,31.676 32.577,32.239 C38.176,27.865 46.155,27.322 52.415,31.449 C58.676,35.577 61.321,43.123 59.507,49.994 C57.802,44.586 54.296,39.701 49.193,36.337" id="Fill-16" fill="#BEC3CC" sketch:type="MSShapeGroup"></path>
            <path d="M47.058,23.133 C41.07,24.363 36.002,27.597 32.411,31.986 C33.277,24.933 38.535,18.908 45.88,17.399 C53.226,15.891 60.433,19.357 64.008,25.497 C58.978,22.88 53.045,21.904 47.058,23.133" id="Fill-17" fill="#BEC3CC" sketch:type="MSShapeGroup"></path>
            <path d="M36.212,15.307 C32.847,20.41 31.551,26.281 32.114,31.924 C27.74,26.324 27.197,18.346 31.324,12.085 C35.452,5.825 42.998,3.179 49.869,4.993 C44.461,6.699 39.576,10.204 36.212,15.307" id="Fill-18" fill="#BEC3CC" sketch:type="MSShapeGroup"></path>
            <path d="M19.473,20.325 C22.21,25.79 26.646,29.849 31.814,32.182 C24.777,33.171 17.596,29.651 14.238,22.947 C10.88,16.242 12.363,8.384 17.369,3.341 C16.142,8.877 16.735,14.86 19.473,20.325" id="Fill-19" fill="#BEC3CC" sketch:type="MSShapeGroup"></path>
            <path id="Fill-20" fill="#BEC3CC" sketch:type="MSShapeGroup"></path>
            <path d="M14.72,32.827 C20.52,34.756 26.527,34.489 31.831,32.485 C27.554,38.159 19.988,40.748 12.873,38.382 C5.757,36.015 1.249,29.411 1.223,22.305 C4.27,27.087 8.92,30.898 14.72,32.827" id="Fill-21" fill="#BEC3CC" sketch:type="MSShapeGroup"></path>
            <path d="M20.2,45.028 C25.665,42.291 29.724,37.855 32.057,32.687 C33.045,39.723 29.526,46.904 22.822,50.262 C16.117,53.62 8.259,52.138 3.216,47.132 C8.752,48.358 14.735,47.765 20.2,45.028" id="Fill-22" fill="#BEC3CC" sketch:type="MSShapeGroup"></path>
            <path d="M32.702,49.78 C34.631,43.98 34.364,37.974 32.36,32.669 C38.034,36.946 40.623,44.512 38.257,51.628 C35.89,58.743 29.286,63.252 22.18,63.278 C26.962,60.23 30.773,55.58 32.702,49.78" id="Fill-23" fill="#BEC3CC" sketch:type="MSShapeGroup"></path>
            <path d="M44.903,44.3 C42.166,38.835 37.73,34.777 32.561,32.443 C39.598,31.455 46.779,34.974 50.137,41.679 C53.495,48.384 52.013,56.242 47.007,61.285 C48.233,55.749 47.64,49.766 44.903,44.3" id="Fill-24" fill="#BEC3CC" sketch:type="MSShapeGroup"></path>
            <path d="M49.655,31.798 C43.855,29.869 37.849,30.136 32.544,32.141 C36.821,26.466 44.387,23.877 51.503,26.243 C58.618,28.61 63.126,35.215 63.153,42.321 C60.105,37.538 55.455,33.727 49.655,31.798" id="Fill-25" fill="#BEC3CC" sketch:type="MSShapeGroup"></path>
            <path d="M44.175,19.598 C38.71,22.335 34.652,26.771 32.318,31.939 C31.33,24.902 34.849,17.722 41.554,14.363 C48.259,11.005 56.117,12.488 61.16,17.494 C55.624,16.267 49.64,16.86 44.175,19.598" id="Fill-26" fill="#BEC3CC" sketch:type="MSShapeGroup"></path>
            <path d="M31.673,14.845 C29.744,20.645 30.011,26.652 32.016,31.956 C26.341,27.679 23.752,20.113 26.118,12.998 C28.485,5.882 35.09,1.374 42.196,1.348 C37.413,4.395 33.602,9.045 31.673,14.845" id="Fill-27" fill="#BEC3CC" sketch:type="MSShapeGroup"></path>
            <path d="M22.887,32.557 C22.887,27.3206301 27.1323816,23.0752485 32.3687515,23.0752485 C37.6066184,23.0752485 41.852,27.3206301 41.852,32.557 C41.852,37.7933699 37.6066184,42.0387515 32.3687515,42.0387515 C27.1323816,42.0387515 22.887,37.7933699 22.887,32.557" id="Fill-28" fill="#FFFFFF" sketch:type="MSShapeGroup"></path>
        </g>
    </g>
</svg>